ply
format ascii 1.0
comment VCGLIB generated
element vertex 156
property float x
property float y
property float z
property float nx
property float ny
property float nz
element face 308
property list uchar int vertex_indices
end_header
-11.448 -0.001003265 -20.17099 -0.9205019 -0.02094322 -0.3901764 
-11.402 -0.001003265 -18.42899 -0.9339322 0.1289541 0.3333789 
-10.91199 -0.001003265 -17.78499 -0.4335713 -0.05934501 0.899163 
-10.79598 -0.001003265 -20.79099 -0.3632382 -0.05013027 -0.9303467 
-10.338 -0.001003265 -17.78299 -0.4420548 0.06051314 0.8949445 
-8.937986 -0.001003265 -15.863 -0.440459 -0.06089486 0.8957051 
-8.095997 -8.095001 -20.171 -0.6360325 -0.6656963 -0.3902707 
-8.095997 8.092999 -20.17099 -0.665691 0.6361517 -0.3900853 
-8.061993 -8.063 -18.429 -0.7515979 -0.5692382 0.3332693 
-8.061993 8.060995 -18.42899 -0.5691884 0.7516964 0.3331324 
-7.853987 -0.001003265 -15.863 -0.3919747 0.05414174 0.9183815 
-7.715986 -7.716999 -17.785 -0.2647178 -0.3485814 0.8991193 
-7.715986 7.714998 -17.78499 -0.3485786 0.2647147 0.8991213 
-7.633986 -7.634998 -20.79099 -0.221482 -0.2926263 -0.9302235 
-7.633986 7.632998 -20.79099 -0.4341074 0.3288422 -0.8386976 
-7.381992 -0.001010895 13.881 -0.9643115 -2.683908e-07 -0.2647702 
-7.381992 -0.001010895 20.79099 -0.8367632 -4.047762e-07 0.547565 
-7.307993 -7.308998 -17.783 -0.355457 -0.2699721 0.894855 
-7.307993 7.306997 -17.78299 -0.26996 0.3555834 0.8948084 
-6.407993 -0.001003265 -14.293 -0.902207 0.01639532 0.4309915 
-6.319986 -6.321003 -15.863 -0.2686135 -0.3546315 0.895591 
-6.319986 6.318998 -15.86299 -0.3545211 0.2685989 0.8956392 
-6.302002 -2.613007 13.881 -0.8273062 -0.3424557 -0.4452963 
-6.302002 -2.613007 17.35099 -0.8428125 -0.3488862 0.4098117 
-6.302002 2.610989 13.881 -0.8273063 0.3424554 -0.4452963 
-6.302002 2.610989 17.35099 -0.842841 0.3488169 0.4098119 
-5.553993 -5.555 -15.863 -0.3153322 -0.2388462 0.9184324 
-5.553993 5.553001 -15.86299 -0.2387583 0.3152697 0.9184767 
-5.289989 -0.00100708 -6.140997 -0.9959283 0.0004079062 0.09014779 
-5.219997 -5.225006 13.881 -0.6815169 -0.6821619 -0.2649339 
-5.219997 -5.225006 20.79099 -0.5913261 -0.5918733 0.5477403 
-5.219997 5.222988 13.881 -0.6817469 0.6819366 -0.264922 
-5.219997 5.222988 20.79099 -0.5915636 0.5916232 0.5477542 
-4.879982 -0.00100708 3.108999 -0.9990495 5.065649e-05 0.04358932 
-4.535992 -0.001010895 11.129 -0.8975725 -0.06305224 -0.4363349 
-4.529999 -4.530998 -14.293 -0.6494505 -0.6263873 0.4311066 
-4.529999 4.528996 -14.29299 -0.6263796 0.6496224 0.4308589 
-4.285992 -0.001010895 15.519 0.9652891 0.0002251955 0.2611837 
-4.285992 -0.001010895 20.79099 0.7748613 0.0001462318 0.6321313 
-3.815994 1.579002 -20.79099 1.072695e-08 2.025398e-07 -1 
-3.739986 -3.745003 -6.140998 -0.7047006 -0.7037824 0.0899298 
-3.739986 3.742992 -6.140997 -0.7592549 0.6432399 0.09886662 
-3.657986 -1.51701 15.519 0.2662956 0.1101835 0.9575731 
-3.657986 -1.51701 17.35099 0.9032656 0.373877 0.2105405 
-3.657986 1.516991 15.519 0.2663423 -0.1101546 0.9575634 
-3.657986 1.516991 17.35099 0.9032305 -0.3739618 0.2105407 
-3.449993 -3.455002 3.108999 -0.7064558 -0.7064097 0.04365356 
-3.449993 3.452995 3.109001 -0.6635263 0.7468774 0.0436685 
-3.205986 -3.211006 11.129 -0.5899561 -0.6793929 -0.4363223 
-3.205986 3.208992 11.129 -0.6792595 0.5900654 -0.4363821 
-3.030003 -3.035007 15.519 0.6825521 0.682548 0.2612485 
-3.030003 -3.035007 20.79099 0.5477886 0.5478432 0.6322939 
-3.030003 3.03299 15.519 0.6823977 -0.6827115 0.261225 
-3.030003 3.03299 20.79099 0.5477593 -0.5480864 0.6321084 
-2.605991 -6.305008 13.881 -0.3424862 -0.8273806 -0.4451343 
-2.605991 -6.305008 17.35099 -0.3489327 -0.842819 0.4097587 
-2.605991 6.304991 13.881 -0.3424639 0.8273286 -0.4452483 
-2.605991 6.304991 17.35099 -0.3489523 0.8427922 0.4097973 
-1.511993 -3.663006 15.519 0.1101834 0.2662955 0.9575732 
-1.511993 -3.663006 17.35099 0.373877 0.9032653 0.2105419 
-1.511993 3.660988 15.519 0.1102346 -0.2662669 0.9575752 
-1.511993 3.660988 17.35099 0.3738769 -0.9032652 0.2105419 
-3.814697e-06 -11.44699 -20.171 0.02091316 -0.920562 -0.3900364 
-3.814697e-06 -11.403 -18.429 -0.1289605 -0.9340958 0.3329178 
-3.814697e-06 -10.913 -17.785 0.05931939 -0.4334507 0.8992229 
-3.814697e-06 -10.797 -20.79099 0.06031511 -0.4370422 -0.8974164 
-3.814697e-06 -10.337 -17.783 -0.06052395 -0.4422633 0.8948408 
-3.814697e-06 -8.938995 -15.863 0.06086581 -0.4406554 0.8956106 
-3.814697e-06 -7.855 -15.863 -0.05408232 -0.391783 0.9184668 
-3.814697e-06 -6.406998 -14.293 -0.01646754 -0.9022704 0.4308561 
-3.814697e-06 -0.001003265 -20.79099 1.397401e-13 1.766782e-07 -1 
-3.814697e-06 6.404995 -14.29299 0.01647798 0.902298 0.4307978 
-3.814697e-06 7.852997 -15.86299 0.05408194 0.3917824 0.918467 
-3.814697e-06 8.936996 -15.86299 -0.06086631 0.440655 0.8956107 
-3.814697e-06 10.33499 -17.78299 0.0605244 0.4422627 0.8948411 
-3.814697e-06 10.795 -20.79099 -0.03294893 0.2385262 -0.970577 
-3.814697e-06 10.911 -17.78499 -0.059321 0.434124 0.8988979 
-3.814697e-06 11.399 -18.42899 0.1289473 0.9340572 0.3330311 
-3.814697e-06 11.447 -20.17099 -0.02080529 0.9207099 -0.3896928 
0.004020691 -7.387009 13.881 -0.0001323706 -0.9643038 -0.2647985 
0.004020691 -7.387009 20.79099 -0.0002125851 -0.8367415 0.547598 
0.004020691 -5.297005 -6.140998 0.05862646 -0.99481 0.08316253 
0.004020691 -4.885002 3.108999 -0.08249831 -0.9956464 0.04338736 
0.004020691 -4.541008 11.129 0.06301605 -0.8976396 -0.436202 
0.004020691 -4.291008 15.519 -3.448567e-06 0.9652829 0.261207 
0.004020691 -4.291008 20.79099 -0.0001373692 0.7750067 0.631953 
0.004020691 -0.001010895 17.463 8.646277e-07 2.946482e-05 1 
0.004020691 4.28899 15.519 -3.448567e-06 -0.9652829 0.261207 
0.004020691 4.28899 20.79099 -0.0001372928 -0.7749523 0.6320197 
0.004020691 4.53899 11.129 -3.267155e-05 0.9254662 -0.3788301 
0.004020691 4.882992 3.109001 1.564174e-06 0.9990458 0.04367518 
0.004020691 5.294994 -6.140996 -0.05861587 0.9948059 0.08321969 
0.004020691 7.384989 13.881 -0.0001321746 0.9643102 -0.264775 
0.004020691 7.384989 20.79099 -0.0002124233 0.8368095 0.5474941 
1.520004 -3.663006 15.519 -0.1100756 0.2663397 0.9575733 
1.520004 -3.663006 17.35099 -0.3736196 0.9033506 0.2106325 
1.520004 3.660988 15.519 -0.1101268 -0.2663111 0.9575753 
1.520004 3.660988 17.35099 -0.3736197 -0.9033506 0.2106326 
2.616016 -6.305008 13.881 0.3424788 -0.8273583 -0.4451815 
2.616016 -6.305008 17.35099 0.3488685 -0.8427884 0.4098762 
2.616016 6.304991 13.881 0.3424567 0.8273061 -0.4452954 
2.616016 6.304991 17.35099 0.3488882 0.8427615 0.4099149 
3.040012 -3.035007 15.519 -0.682762 0.6823073 0.2613289 
3.040012 -3.035007 20.79099 -0.5478207 0.5476003 0.6324764 
3.040012 3.03299 15.519 -0.682608 -0.6824704 0.2613054 
3.040012 3.03299 20.79099 -0.5477917 -0.5478435 0.632291 
3.214001 -3.211006 11.129 0.6792352 -0.5901163 -0.4363512 
3.214001 3.208992 11.129 0.6078511 0.6078507 -0.5109156 
3.458004 -3.455002 3.108999 0.6032308 -0.7963935 0.0432444 
3.458004 3.452995 3.109001 0.6635064 0.746907 0.04346449 
3.665997 -1.51701 15.519 -0.2664036 0.1099194 0.9575734 
3.665997 -1.51701 17.35099 -0.9034756 0.3733908 0.2105024 
3.665997 1.516991 15.519 -0.2664507 -0.1098903 0.9575637 
3.665997 1.516991 17.35099 -0.9034407 -0.373475 0.2105026 
3.747997 -3.745003 -6.140998 0.7940488 -0.6013347 0.08878652 
3.747997 3.742992 -6.140997 0.7046115 0.703905 0.08966925 
3.816006 1.579002 -20.79099 -1.072684e-08 2.025399e-07 -1 
4.294006 -0.001010895 15.519 -0.9652891 0.0002251878 0.2611839 
4.294006 -0.001010895 20.79099 -0.774861 0.0001462409 0.6321317 
4.529995 -4.530998 -14.293 0.6264755 -0.6496112 0.4307364 
4.529995 4.528996 -14.29299 0.6496289 0.626485 0.4306958 
4.544003 -0.001010895 11.129 0.8975321 0.06305622 -0.4364173 
4.887997 -0.00100708 3.108999 0.9973004 -0.05902978 0.0436741 
5.228008 -5.225006 13.881 0.6816127 -0.6820681 -0.2649288 
5.228008 -5.225006 20.79099 0.5914318 -0.5918491 0.5476523 
5.228008 5.222988 13.881 0.6818427 0.6818427 -0.264917 
5.228008 5.222988 20.79099 0.5916693 0.5915988 0.5476662 
5.299999 -0.00100708 -6.140997 0.9917791 0.08192407 0.09829851 
5.554001 -5.555 -15.863 0.2387576 -0.3152702 0.9184768 
5.554001 5.553001 -15.86299 0.3152691 0.2387578 0.9184771 
6.310013 -2.613007 13.881 0.8271956 -0.3426714 -0.4453357 
6.310013 -2.613007 17.35099 0.8427399 -0.3491381 0.4097463 
6.310013 2.610989 13.881 0.8271957 0.3426711 -0.4453357 
6.310013 2.610989 17.35099 0.8427685 0.3490689 0.4097466 
6.320011 -6.321003 -15.863 0.3545555 -0.2685283 0.8956467 
6.320011 6.318998 -15.86299 0.2686395 0.3545996 0.8955959 
6.406006 -0.001003265 -14.293 0.9023849 -0.01647807 0.430616 
7.308002 -7.308998 -17.783 0.2699833 -0.3555579 0.8948115 
7.308002 7.306997 -17.78299 0.3554949 0.2699021 0.894861 
7.392002 -0.001010895 13.881 0.9642743 -2.570436e-07 -0.2649058 
7.392002 -0.001010895 20.79099 0.8366953 -4.183479e-07 0.5476686 
7.633995 -7.634998 -20.79099 0.2925875 -0.2216625 -0.9301926 
7.633995 7.632998 -20.79099 0.3291437 0.43446 -0.8383967 
7.714001 -7.716999 -17.785 0.3485402 -0.2646127 0.8991662 
7.714001 7.714998 -17.78499 0.264514 0.3486267 0.8991617 
7.854012 -0.001003265 -15.863 0.3917818 -0.05408255 0.9184673 
8.062016 -8.063 -18.429 0.5692264 -0.7515949 0.3332962 
8.062016 8.060995 -18.42899 0.7515621 0.5692424 0.3333431 
8.094009 -8.095001 -20.171 0.6657723 -0.6363806 -0.3895729 
8.094009 8.092999 -20.17099 0.6362091 0.665803 -0.3898006 
8.936001 -0.001003265 -15.863 0.4404937 0.06086128 0.8956903 
10.33599 -0.001003265 -17.78299 0.4420845 -0.0604733 0.8949325 
10.79601 -0.001003265 -20.79099 0.3634649 0.05023896 -0.9302523 
10.912 -0.001003265 -17.78499 0.4338302 0.0592385 0.8990452 
11.40001 -0.001003265 -18.42899 0.9339932 -0.128928 0.3332182 
11.44799 -0.001003265 -20.17099 0.9206784 0.02083289 -0.3897657 
3 75 39 3 
3 3 14 75 
3 39 13 3 
3 13 39 70 
3 70 65 13 
3 152 141 116 
3 75 142 152 
3 70 75 116 
3 75 70 39 
3 65 70 141 
3 152 116 75 
3 70 116 141 
3 75 78 142 
3 142 78 149 
3 14 7 75 
3 75 7 78 
3 3 0 14 
3 14 0 7 
3 13 6 3 
3 3 6 0 
3 65 62 13 
3 13 62 6 
3 141 148 65 
3 65 148 62 
3 152 155 141 
3 141 155 148 
3 142 149 152 
3 152 149 155 
3 78 77 149 
3 149 77 147 
3 7 9 78 
3 78 9 77 
3 0 1 7 
3 7 1 9 
3 6 8 0 
3 0 8 1 
3 62 63 6 
3 6 63 8 
3 148 146 62 
3 62 146 63 
3 155 154 148 
3 148 154 146 
3 149 147 155 
3 155 147 154 
3 76 144 77 
3 77 144 147 
3 12 76 9 
3 9 76 77 
3 2 12 1 
3 1 12 9 
3 11 2 8 
3 8 2 1 
3 64 11 63 
3 63 11 8 
3 143 64 146 
3 146 64 63 
3 153 143 154 
3 154 143 146 
3 144 153 147 
3 147 153 154 
3 119 69 128 
3 128 69 68 
3 69 35 68 
3 68 35 26 
3 35 19 26 
3 26 19 10 
3 19 36 10 
3 10 36 27 
3 36 71 27 
3 27 71 72 
3 71 120 72 
3 72 120 129 
3 120 136 129 
3 129 136 145 
3 136 119 145 
3 145 119 128 
3 128 68 134 
3 134 68 67 
3 68 26 67 
3 67 26 20 
3 26 10 20 
3 20 10 5 
3 10 27 5 
3 5 27 21 
3 27 72 21 
3 21 72 73 
3 72 129 73 
3 73 129 135 
3 129 145 135 
3 135 145 150 
3 145 128 150 
3 150 128 134 
3 66 17 64 
3 64 17 11 
3 17 4 11 
3 11 4 2 
3 4 18 2 
3 2 18 12 
3 18 74 12 
3 12 74 76 
3 74 138 76 
3 76 138 144 
3 138 151 144 
3 144 151 153 
3 151 137 153 
3 153 137 143 
3 137 66 143 
3 143 66 64 
3 67 20 66 
3 66 20 17 
3 20 5 17 
3 17 5 4 
3 5 21 4 
3 4 21 18 
3 21 73 18 
3 18 73 74 
3 73 135 74 
3 74 135 138 
3 135 150 138 
3 138 150 151 
3 150 134 151 
3 151 134 137 
3 134 67 137 
3 137 67 66 
3 120 71 115 
3 115 71 91 
3 71 36 91 
3 91 36 41 
3 36 19 41 
3 41 19 28 
3 19 35 28 
3 28 35 40 
3 35 69 40 
3 40 69 81 
3 69 119 81 
3 81 119 114 
3 119 136 114 
3 114 136 127 
3 136 120 127 
3 127 120 115 
3 115 91 109 
3 109 91 90 
3 127 115 122 
3 122 115 109 
3 45 25 38 
3 38 25 16 
3 140 133 118 
3 59 51 55 
3 55 51 30 
3 43 23 51 
3 51 23 30 
3 113 112 117 
3 117 118 113 
3 97 105 101 
3 101 105 126 
3 112 113 104 
3 105 104 113 
3 43 38 23 
3 38 16 23 
3 140 118 131 
3 90 91 47 
3 47 91 41 
3 22 23 15 
3 16 15 23 
3 33 47 28 
3 28 47 41 
3 46 33 40 
3 40 33 28 
3 29 30 23 
3 23 22 29 
3 82 81 108 
3 108 81 114 
3 108 114 122 
3 122 114 127 
3 82 46 81 
3 81 46 40 
3 83 48 82 
3 82 48 46 
3 54 48 83 
3 29 55 30 
3 29 54 55 
3 22 48 29 
3 48 54 29 
3 45 53 25 
3 25 53 32 
3 97 101 88 
3 93 88 101 
3 85 80 99 
3 61 57 53 
3 53 57 32 
3 84 95 94 
3 84 85 95 
3 94 58 84 
3 110 94 102 
3 110 117 112 
3 60 96 87 
3 58 42 50 
3 44 37 42 
3 96 112 104 
3 44 60 52 
3 42 58 86 
3 87 97 88 
3 87 96 97 
3 52 61 53 
3 52 60 61 
3 45 37 44 
3 37 45 38 
3 43 50 42 
3 50 43 51 
3 50 51 59 
3 50 59 58 
3 60 44 86 
3 44 52 45 
3 53 45 52 
3 111 110 102 
3 102 103 111 
3 110 111 117 
3 118 117 111 
3 58 59 84 
3 85 84 59 
3 94 110 86 
3 112 96 86 
3 96 104 97 
3 105 97 104 
3 86 110 112 
3 86 44 42 
3 38 43 37 
3 42 37 43 
3 111 103 131 
3 131 103 124 
3 95 85 99 
3 106 130 123 
3 79 99 80 
3 79 98 99 
3 131 123 130 
3 123 131 124 
3 59 55 85 
3 93 57 88 
3 85 55 80 
3 121 106 122 
3 122 106 108 
3 130 106 121 
3 106 83 108 
3 108 83 82 
3 83 98 79 
3 54 83 79 
3 54 79 55 
3 80 55 79 
3 98 83 106 
3 98 106 123 
3 86 58 94 
3 98 123 99 
3 124 99 123 
3 95 99 103 
3 103 99 124 
3 94 95 102 
3 103 102 95 
3 86 96 60 
3 60 87 61 
3 88 61 87 
3 61 88 57 
3 25 24 15 
3 15 16 25 
3 24 34 15 
3 34 22 15 
3 33 46 34 
3 34 46 48 
3 22 34 48 
3 24 25 31 
3 32 31 25 
3 31 32 57 
3 31 57 56 
3 49 24 31 
3 47 33 49 
3 49 33 34 
3 34 24 49 
3 56 57 92 
3 93 92 57 
3 56 49 31 
3 111 131 118 
3 130 121 139 
3 140 131 139 
3 130 139 131 
3 113 118 133 
3 133 139 132 
3 139 133 140 
3 107 121 109 
3 109 121 122 
3 121 132 139 
3 100 101 125 
3 92 93 101 
3 92 101 100 
3 126 125 101 
3 107 100 125 
3 107 132 121 
3 126 133 125 
3 132 125 133 
3 113 133 105 
3 105 133 126 
3 100 89 92 
3 90 89 109 
3 109 89 107 
3 89 100 107 
3 90 47 89 
3 89 47 49 
3 49 56 89 
3 89 56 92 
3 132 107 125 
