ply
format ascii 1.0
comment VCGLIB generated
element vertex 453
property float x
property float y
property float z
property float nx
property float ny
property float nz
element face 948
property list uchar int vertex_indices
end_header
-4.118355 5.56359 1.371252 0.1467789 0.9712619 -0.1873671 
-8.155095 7.033587 1.537917 0.7220478 0.630901 -0.2839208 
-15.2422 11.12079 12.23712 0.2486901 0.6000802 0.7603006 
3.44784 6.79179 5.19606 -0.1400477 0.9833864 0.1154895 
0.04108473 5.956287 1.407135 -0.2017068 0.9672655 -0.1539863 
15.16352 -0.2174109 9.412769 0.6767838 0.4725151 0.5645292 
17.27431 -0.7646106 5.02905 0.8887602 0.4521667 0.07517052 
-3.805935 -0.4310109 11.81883 -0.08529837 0.5173521 0.851511 
14.37391 3.24399 5.46852 0.7030956 0.7033179 0.1048839 
-13.97653 15.48969 -5.2464 0.8399878 0.510191 0.1847312 
18.6595 -4.4913 1.349235 0.9692945 0.2126429 -0.1234953 
-4.254495 18.79089 -2.078589 0.5329059 0.1961191 0.8231334 
-20.20757 7.89579 13.93179 -0.6227421 0.2726441 0.7333877 
-15.40829 4.28799 15.35355 0.4428797 -0.01009775 0.8965243 
7.03455 6.97959 5.17404 0.1161244 0.9844314 0.1319467 
17.387 -0.7850112 1.749414 0.8955442 0.4421023 -0.05045955 
16.86838 -1.679311 -1.562856 0.8496721 0.3695657 -0.3761363 
-22.18726 7.913193 4.95726 -0.9966872 0.07867608 -0.02061138 
-19.31351 -0.1778103 9.13128 -0.7628573 -0.2847585 0.5804839 
-14.91727 14.51889 5.19237 -0.02412346 0.9986112 0.04683759 
-18.62249 13.53489 8.80581 -0.3583901 0.8778409 0.3177291 
7.036146 4.42359 10.21464 0.1527711 0.6725754 0.724088 
-10.24138 11.17269 5.3706 0.8619381 0.3504684 0.3663803 
-18.14531 7.43739 15.2313 -0.01219319 0.40606 0.9137651 
3.476001 6.052587 8.06517 -0.1340255 0.8928546 0.4299394 
-9.125865 6.462689 7.91586 0.5693074 0.5283451 0.6298735 
-19.47998 -4.48359 -1.841658 -0.8531472 -0.03522725 -0.5204796 
10.48013 5.980587 5.38692 0.4204374 0.8850463 0.1998135 
-21.95791 3.76389 1.8306 -0.9467567 -0.08864658 -0.3095056 
-3.573015 21.38139 -2.537397 -0.5053976 0.7976117 0.3292249 
-18.68861 10.80039 12.6363 -0.3083317 0.6357337 0.707654 
-0.2382752 0.1710891 12.27942 -0.2137384 0.4404694 0.8719534 
-0.8216549 22.22619 -5.67174 -0.01251861 0.9998437 -0.01248421 
-6.063046 18.06849 -4.08525 -0.5016159 0.1236285 -0.8562111 
6.994617 6.09039 8.196959 0.09640688 0.8958247 0.4338246 
-7.813544 6.67659 5.086471 0.5886064 0.7775533 0.2212542 
10.90909 3.63099 9.549181 0.3984358 0.640332 0.6566764 
-7.954905 17.78289 0.522174 0.02108378 0.5204254 0.8536469 
-21.69518 7.39269 1.943709 -0.8804454 0.1096211 -0.4613016 
-11.95748 11.16909 9.28236 0.7516227 0.3257607 0.5735357 
18.52679 -4.29183 5.11899 0.9615276 0.2213743 0.1626595 
17.61842 -4.67568 8.394569 0.8883615 0.2291169 0.3978938 
-11.67046 14.04189 4.88988 0.5079624 0.8371941 0.2026823 
-0.9359256 15.60429 -2.326086 0.73661 -0.05036425 0.67444 
-16.64866 -12.64413 5.27727 -0.5965748 -0.7893988 0.1447344 
-14.97088 14.24919 1.570647 0.06842622 0.9824479 -0.1735342 
-21.8978 3.25569 12.19092 -0.8560359 -0.3145028 0.4102322 
13.44238 3.06189 8.41221 0.5757362 0.6842805 0.4475357 
17.82022 -4.83603 -1.844355 0.8537796 0.2150246 -0.4741569 
-15.81515 17.26329 -6.01335 0.2597744 0.9155505 0.3070579 
3.392715 4.49109 10.26258 -0.07999884 0.6998202 0.7098252 
14.25226 -4.34403 12.47076 0.5451841 0.2517604 0.7996194 
-0.005745516 16.31019 -4.53819 0.2737333 -0.710316 -0.6484762 
-17.67118 19.05969 -12.50415 -0.9719672 -0.1592544 -0.1729677 
-20.37868 -0.7118112 0.844938 -0.9018828 0.05343762 -0.4286628 
16.36105 0.8052909 6.04335 0.7822675 0.5843684 0.2158036 
3.268929 -19.50906 13.90821 -0.008806756 -0.3905154 0.9205543 
7.167507 -19.21743 13.87428 0.244333 -0.4574664 0.8550005 
-11.52929 14.95419 1.795845 -0.2491913 0.9539024 0.1672542 
-22.09534 3.31719 8.779739 -0.9243365 -0.3328157 0.1866437 
-12.60514 6.17799 11.81526 0.6816611 0.1423387 0.7176892 
-0.04192515 5.953893 5.20746 -0.2371234 0.9453098 0.2239687 
-14.74178 13.82169 9.08757 0.1772973 0.8545746 0.4881271 
-7.844415 18.50379 -1.824198 -0.646708 0.6859641 -0.3334998 
-11.93465 -19.35471 12.68508 -0.362144 0.6400363 0.6776469 
-17.66507 14.83869 -5.24019 -0.9999275 0.006185201 -0.01033603 
-7.785706 14.48739 1.673865 0.6534275 0.1475513 0.7424697 
-7.565415 -19.67826 12.6366 -0.1703948 0.2018384 0.9644827 
-2.377905 -5.72895 14.94129 -0.6385757 0.1536409 0.7540661 
0.9944247 5.553391 7.818991 -0.3101942 0.876731 0.3675901 
-21.22934 -5.367 1.916355 -0.9670795 -0.0756842 -0.2429591 
-15.41273 15.00429 -2.236299 0.3279146 0.860181 0.3905903 
-15.14216 10.53549 -2.446449 0.404672 -0.09196756 -0.9098256 
10.90426 -0.4397103 12.33354 0.2659058 0.4506478 0.85218 
-5.697975 19.03989 -0.01000883 -0.003296894 0.9088868 0.4170299 
-14.68244 2.831789 -3.135003 -0.3074243 0.2645447 -0.9140604 
-15.23006 18.79179 -13.28337 0.7199426 0.639353 0.2700194 
-22.02938 11.48739 5.53794 -0.8936691 0.4475993 -0.03178619 
7.283991 2.42469 11.46879 0.130554 0.5119761 0.8490207 
14.55229 -4.40673 -5.51292 0.5636533 0.2909604 -0.7730698 
6.957405 -0.5606106 12.89181 0.1253835 0.5105803 0.850639 
-15.94744 6.86139 14.90139 0.4371139 0.4551167 0.7757578 
7.040504 6.92979 1.564917 0.07311229 0.9890972 -0.1278336 
10.77463 -19.63215 12.56958 0.4937087 -0.4461524 0.7464582 
9.684405 -5.0352 15.11622 0.3407245 0.3302823 0.8802388 
3.453429 2.29509 11.88729 -0.03475459 0.4722834 0.8807614 
-19.09124 3.06399 -1.251879 -0.6420434 0.0368505 -0.7657822 
-18.36284 10.95459 -1.340676 -0.7900386 0.1366637 -0.5976304 
6.994089 -0.4598112 -6.44256 0.1053714 0.4984604 -0.8604848 
-0.534705 3.62829 9.66831 -0.2924784 0.7356948 0.6109087 
3.468777 6.73689 1.61268 -0.1426865 0.9778922 -0.1528638 
-21.55154 10.49589 8.53626 -0.907106 0.3718263 0.1972409 
2.960511 4.65429 -3.118185 -0.08446448 0.7757269 -0.6253908 
-15.51977 21.34899 -16.45581 0.2062917 0.9580374 -0.1990176 
-3.714585 4.94799 6.1167 0.0429047 0.8891136 0.4556712 
-20.19986 12.36849 9.65739 -0.6814766 0.6661832 0.302968 
-21.40736 -5.03592 5.1975 -0.9626392 -0.1552899 0.2218353 
-3.928245 4.38759 -2.080833 0.128625 0.842159 -0.5236639 
-3.967815 3.06909 9.011459 0.004339959 0.6971977 0.7168658 
-18.17023 3.86829 15.24645 -0.3377442 -0.286499 0.8965753 
15.22954 0.2217897 -2.403105 0.6438144 0.5054974 -0.574435 
-15.06523 -4.46007 -5.23794 -0.3997776 0.1429051 -0.9054039 
-17.45168 -4.9731 -4.28253 -0.6164713 0.01872311 -0.7871547 
-19.47848 -3.79398 9.152821 -0.8067828 0.01983621 0.5905151 
-20.4614 8.74329 0.402846 -0.7882874 0.1710127 -0.5910649 
-3.535995 -19.7952 15.24558 -0.5556868 0.201637 0.8065698 
-0.07147527 -19.61169 15.33168 0.430098 0.1327314 0.8929715 
-14.46148 18.97449 -17.16672 -0.03151689 -0.3887665 -0.9207971 
-3.707565 18.94389 -5.14179 -0.4665625 0.1123087 -0.8773291 
-11.62694 8.176291 9.74013 0.7638931 0.3053125 0.5685523 
-14.73569 7.578691 13.2378 0.6079322 0.3118579 0.7301803 
-7.513245 14.30469 -2.421579 -0.03162912 -0.7345876 -0.6777763 
-11.11111 -10.88952 11.73774 -0.202354 -0.5392303 0.8174862 
-7.146645 -5.11992 -6.94995 -0.2358003 0.006685381 -0.9717786 
0.06184449 -4.67439 15.91284 -0.3579266 0.404406 0.8416319 
3.453768 -4.11837 16.10577 -0.04591581 0.4541638 0.8897343 
17.95984 -12.15072 8.70051 0.5837469 0.2532281 0.7714371 
13.82035 2.745089 -1.348836 0.6029837 0.6972182 -0.3876821 
-4.706205 -18.80529 13.36086 -0.5705845 0.1862012 0.7998516 
-10.93393 3.24219 10.43841 0.5133746 0.2530905 0.819995 
17.92984 -8.46123 -1.911903 0.891378 -0.05619654 -0.4497636 
14.16632 -19.56255 8.97573 0.4437189 -0.7027004 0.5561706 
-4.221045 -3.54768 -7.27755 -0.3339321 0.3440695 -0.8775566 
16.70225 -0.7913097 7.83489 0.8401345 0.3968565 0.3697013 
-3.301515 -5.18001 -8.899139 -0.5526074 0.3233782 -0.7681482 
0.05245452 -19.18935 12.80733 -0.007859692 -0.6427145 0.7660655 
6.378386 -18.00108 14.88759 0.1124631 -0.4687226 0.8761571 
18.22832 -18.57888 8.17401 0.4345133 -0.5776766 0.6910051 
-1.751535 22.04409 -3.56031 0.6063268 0.3082288 0.7330504 
3.560385 -15.37647 15.99102 -0.1464053 -0.3200263 0.9360281 
6.836418 -15.62367 15.81291 0.265983 -0.3008955 0.9158139 
-21.24844 -0.600511 5.01597 -0.975756 -0.1954305 0.09852451 
-11.7431 -18.22209 9.000751 -0.6528939 0.6791182 0.3354522 
-3.639165 -16.03197 11.79501 -0.3016275 0.2666182 0.9153882 
3.455904 -0.5585097 13.04655 -0.08410011 0.4947536 0.8649544 
-1.175535 -15.91833 13.21878 -0.454321 0.09138575 0.8861383 
0.4034847 -15.09672 15.09768 -0.4630342 -0.3276035 0.8235747 
-11.80102 11.58999 -0.9663 0.04994078 0.2634273 -0.9633857 
-22.69586 3.39249 5.22492 -0.9926825 -0.1167052 -0.03100565 
-13.31047 15.19749 -8.9643 0.9020381 -0.4315267 -0.01058454 
-20.42762 -0.2756104 6.345181 0 0 0 
15.34739 -16.11132 10.35171 0.5564201 -0.2731123 0.7847334 
18.07943 -15.51708 9.29418 0.3877821 -0.06457058 0.9194866 
-7.789545 2.82969 9.3378 0.1672741 0.5756863 0.8003778 
-15.18073 14.68869 -12.95874 -0.2240619 -0.6263062 -0.746684 
13.41965 -1.38081 11.73822 0.4939106 0.3878213 0.7782333 
-3.569835 21.23319 -4.54041 -0.7579789 0.5213218 -0.3920353 
-17.63279 -4.96026 11.32905 -0.6175815 0.01123982 0.7864267 
-0.4904253 -2.74905 13.52676 -0.2368701 0.5843251 0.7761809 
-10.67918 -15.30555 8.64537 -0.7884849 -0.4569653 0.4116726 
-7.711215 -15.6543 11.55162 -0.4299261 -0.09412762 0.8979441 
-19.74353 2.36529 13.87488 -0.449272 -0.5677175 0.68982 
9.578474 5.796693 7.71558 0.3340795 0.8261213 0.453778 
-6.419265 4.80069 7.31982 0.2947195 0.7445093 0.5990379 
-12.58264 3.64389 11.81916 0.6161798 -0.08837046 0.7826322 
-15.82184 13.95099 -9.54555 -0.4897854 -0.4846765 -0.7247061 
-11.98606 13.44519 8.36172 0.6270023 0.5946129 0.5032929 
-9.153015 -15.41781 10.70637 -0.5359613 -0.5097093 0.6730097 
2.030265 21.57099 -8.497681 0.8200199 0.5298333 0.2164351 
-21.22066 -0.5078092 2.366748 -0.9408155 -0.09563382 -0.3251468 
-18.45008 13.86759 1.782066 -0.526432 0.8295441 -0.1863491 
-3.622125 5.49399 4.21662 0.03422962 0.9928305 0.1145253 
-19.27256 13.98939 5.14644 -0.5006915 0.8642687 -0.04845186 
-18.61595 -1.06941 -2.034342 -0.6486648 0.1790991 -0.7397009 
-2.210115 4.54629 7.18935 -0.1673306 0.8598004 0.4824353 
-14.68436 15.65949 -16.18491 0.2953338 -0.8473724 -0.4412913 
-18.29822 -11.16912 5.06031 -0.7771389 -0.6214435 0.09931325 
2.346822 19.63989 -8.12187 0.06584214 -0.3426945 -0.9371368 
-11.74039 -15.91668 2.060169 -0.9700687 -0.2333911 -0.06704746 
-0.2723252 4.33809 -2.498922 -0.1602938 0.8551452 -0.4929833 
-15.63044 11.59599 -5.583119 0.005049534 -0.9291524 -0.3696625 
-7.127385 4.63119 -3.047781 0.1014182 0.7493103 -0.6544069 
-15.30104 12.13059 -8.79132 0.1586204 -0.7273254 -0.6677105 
-10.95296 -15.66471 5.1567 -0.8400294 -0.521292 0.1503507 
0.1720346 -11.86257 15.77145 -0.5439548 -0.2416366 0.8035701 
3.426462 -12.01455 16.76151 -0.05551515 -0.1684192 0.9841509 
7.374309 -12.13107 16.42755 0.2346865 -0.118669 0.9648005 
0.9529047 2.76369 11.17728 -0.2492236 0.5746299 0.7795435 
21.41581 -15.6012 7.8138 0.6740075 -0.1684648 0.719259 
6.80169 -4.37547 15.90267 0.2083413 0.4138096 0.8862029 
-7.683015 -12.09597 12.05859 -0.1813263 -0.1532478 0.9714093 
-3.543945 -11.90562 12.13128 -0.3648749 -0.1573408 0.9176657 
-6.138525 16.25859 -4.01415 -0.400894 -0.4024824 -0.8229775 
-11.58683 -12.69774 10.08585 -0.4742674 -0.4582476 0.7517178 
-17.60308 14.34009 -1.95168 -0.6128298 0.7863877 0.07767807 
-11.3173 4.42419 -3.012984 0.00506532 0.5369256 -0.8436143 
10.55825 -0.5327112 -5.75766 0.3714551 0.4694153 -0.8010434 
21.28561 -12.63636 7.75656 0.5826807 0.4038033 0.7052844 
-20.82644 -4.00293 0.705834 -0.9269667 0.04963383 -0.3718458 
-17.67958 16.18449 -9.09903 -0.8361925 -0.3676158 -0.4069897 
-7.980645 5.90829 -1.157145 0.2553771 0.8248693 -0.5043544 
-4.139445 -8.37867 12.8748 -0.4567288 -0.2484813 0.8541989 
-11.23532 -0.42321 -5.74227 -0.2234734 0.3104587 -0.9239454 
-16.46392 0.6894885 -3.003291 -0.4663464 0.2298055 -0.8542309 
-11.36164 -4.73274 -6.52701 -0.2180469 0.07200851 -0.9732782 
-9.394605 -12.5238 11.04525 -0.2994502 -0.5695906 0.7654386 
-8.944455 11.21919 1.891887 0.9928073 -0.1130141 0.03951608 
-18.86927 6.562587 -1.582785 -0.5263867 0.04094269 -0.849259 
-7.292475 -0.5474097 -6.13428 -0.09894162 0.2993942 -0.9489856 
3.351708 -4.37805 -10.04157 0.1834953 0.4134206 -0.8918593 
3.456963 -0.4862106 -6.84198 0.04298936 0.5670022 -0.8225937 
-3.596685 15.16029 -2.031318 0.3502063 -0.9362638 0.02767138 
-0.09046534 -0.4409106 -6.706651 -0.04765864 0.5793397 -0.8136917 
-21.30971 9.02409 11.6454 -0.7947229 0.4351362 0.4231691 
-14.99993 6.189991 -2.763933 -0.03529436 0.1548795 -0.9873027 
19.15891 -10.87377 6.3291 0.7291185 0.3565234 0.5841894 
-7.038825 2.82279 -4.54779 0.02207877 0.5928649 -0.8049992 
2.048445 17.93469 -6.14391 0.7665672 -0.474956 0.4321939 
-10.72828 14.90919 -1.019208 -0.6585309 0.1826607 -0.7300494 
6.841089 -4.33374 -9.22908 0.2462939 0.4215346 -0.8727245 
-17.95495 -10.51083 7.82286 -0.6962254 -0.6120588 0.3750391 
-13.50449 12.65259 -4.68309 0.9424648 -0.3303148 0.05149993 
-15.3923 -11.75583 9.02595 -0.4700754 -0.6772721 0.5659785 
-11.10944 -8.07327 -6.22473 -0.1159367 -0.2740612 -0.9546985 
-7.854915 -8.65281 12.69213 -0.01350096 -0.153987 0.9879807 
-0.3243153 -8.63652 16.54707 -0.3591464 -0.1663267 0.9183405 
3.448146 -8.49117 17.16672 -0.01133045 0.0619606 0.9980143 
7.367579 -7.9701 16.57209 0.2304533 0.07251148 0.970378 
-20.25994 11.48259 1.584342 -0.7867313 0.4550493 -0.4171138 
16.35145 0.7914909 0.622362 0.7974763 0.5590477 -0.2269302 
-15.2444 -8.228129 12.03975 -0.389508 -0.3235182 0.8623337 
-11.52008 -8.54979 12.88653 -0.09615303 -0.2548754 0.9621815 
16.6918 -5.89593 -4.33377 0.7579187 0.1432875 -0.6364182 
-14.03699 -20.43507 11.71368 -0.8400218 0.165329 0.5167491 
-15.71276 18.23319 -9.57309 0.3532841 0.8710456 0.3412767 
-13.29067 14.39469 -6.41121 0.9318112 0.2345336 -0.2769875 
-13.43731 16.38039 -12.06216 0.9454781 0.2071858 -0.2512871 
-15.3578 -4.61649 12.48582 -0.4128596 0.1115467 0.9039382 
-9.557775 9.461793 4.26513 0.9332842 0.3383586 0.1203917 
-18.27719 0.7101909 12.36306 -0.3458747 -0.7840431 0.5154098 
10.6306 -8.545199 15.39234 0.4749679 0.03461063 0.8793223 
6.846321 4.77069 -3.164835 0.1030367 0.7621017 -0.6392062 
-11.45509 -4.27143 13.08858 -0.03042603 0.08798413 0.9956571 
-7.709595 -4.69299 12.80715 -0.01574248 0.07017073 0.9974108 
-3.710655 -4.12389 13.17063 -0.3068016 0.318885 0.8967637 
11.42677 -6.19371 14.59623 0.4628348 0.208012 0.8616931 
10.41113 5.971291 1.364259 0.4318091 0.8868417 -0.1644776 
-3.455625 -0.3119097 -6.39789 -0.1736949 0.4706249 -0.8650678 
10.81141 -3.88425 14.15409 0.3304838 0.3979389 0.8558185 
3.482097 2.65899 -4.97499 -0.0145636 0.5858222 -0.8103087 
-10.5976 16.46709 0.716613 -0.5731791 0.726923 0.3782178 
15.99047 -3.56979 -3.78336 0.7270561 0.2688971 -0.6317309 
-22.11379 7.096887 8.68569 -0.9920235 0.08373614 0.09422155 
-15.11407 -0.2420113 11.93823 0.01394296 -0.1845368 0.9827268 
-8.000956 -0.8522094 11.87766 0.02807753 0.4147011 0.9095244 
7.496883 -2.822609 14.47413 -1 0 0 
-11.40071 -1.158209 12.16863 0.04017365 0.3719442 0.9273854 
-14.8232 2.38749 14.03085 0.4537848 -0.4317889 0.7795113 
-9.797595 9.770186 0.602934 0.7190969 -0.1129885 -0.6856626 
-11.38712 7.39839 -1.629855 0.4437808 0.3538462 -0.8233174 
0.8225247 22.24149 -8.056951 -0.375149 0.1688488 -0.9114567 
-3.619275 16.20729 -4.47456 -0.133783 -0.5336556 -0.8350532 
-11.6075 1.055489 11.03787 0.2077891 0.2238782 0.9522092 
-7.047075 0.8211898 10.95297 0.05521202 0.5168033 0.854322 
-4.353525 0.8127897 10.93962 0.01064007 0.6190261 0.7852984 
12.74911 0.8556894 10.88025 0.4586593 0.5228062 0.718544 
-8.847975 11.90259 -0.8411281 0.5751297 -0.5120018 -0.6380283 
-0.2540851 -21.75675 15.06462 0.5226753 -0.6217968 0.583249 
-0.1040552 18.81759 -5.60781 0.993982 -0.07014193 0.08414277 
-11.83604 -21.84513 12.53799 -0.1515214 -0.6468453 0.7474172 
6.998142 -21.79533 12.4539 0.1472632 -0.674551 0.7233911 
-7.592595 -21.78039 12.33264 0.01061334 -0.8453934 0.5340387 
-14.69048 -0.89451 -4.63098 -0.4229741 0.2474069 -0.8717126 
12.97169 -18.5535 11.26203 0.6329609 -0.4243118 0.6475493 
16.63166 -7.8126 -4.41993 0.7693326 -0.1893282 -0.6101493 
-20.07973 -8.39619 5.41644 -0.885649 -0.4014635 0.2333515 
21.22324 -18.05061 5.28357 0.6843429 -0.6813164 0.2597743 
10.84085 -16.24656 13.69098 0.4722177 -0.2668599 0.8401168 
7.44567 3.14529 -4.76388 0.1458797 0.5740101 -0.8057491 
-4.192995 14.79219 0.1193449 0.3066153 -0.9455764 0.108961 
13.83499 -15.26481 12.05553 0.5893462 -0.2465413 0.769343 
22.69586 -15.82713 5.2341 0.93565 -0.3267327 0.1334348 
10.30732 -5.34711 -8.246639 0.4128875 0.3139065 -0.8549776 
9.621465 -14.75454 14.87721 0.4409886 -0.2527515 0.8611886 
16.26556 -4.78209 10.81392 0.7650213 0.1620383 0.6232865 
-0.715905 17.59359 -3.55449 0.6690586 0.4404953 0.5986022 
9.756945 -12.0069 15.44661 0.4379298 -0.1507597 0.8862782 
11.56384 -11.89278 14.35686 0.5537304 -0.1541153 0.81831 
14.2114 -11.92953 12.40164 0.5966185 -0.1323238 0.7915408 
16.29887 -11.97276 10.81878 0.7171519 -0.1115412 0.6879329 
22.49056 -11.86107 4.96923 0.8334441 0.5118586 0.2082593 
14.75338 -8.775 -5.93592 0.6594808 -0.09602456 -0.7455631 
-17.56001 20.38359 -15.38163 -0.8405722 0.01796483 -0.5414016 
-14.41376 -14.09106 5.09769 -0.489777 -0.8569353 0.1605629 
-18.93265 -7.89351 9.021959 -0.7446496 -0.3538797 0.5659206 
10.9406 4.12419 -2.257215 0.4555449 0.6724442 -0.5833504 
14.45332 -8.463779 12.77169 0.6292751 -0.02301895 0.7768417 
16.40477 -8.55309 10.86459 0.7403364 -0.02290088 0.6718464 
17.82911 -8.45028 8.703811 0.8888744 0.06902324 0.4529218 
19.05773 -8.516789 5.1573 0.9139192 0.3046685 0.2681954 
-18.38951 -11.09442 1.883235 -0.7831125 -0.6086574 -0.1275575 
-3.571485 2.447489 -4.58547 -0.02051645 0.6749409 -0.7375865 
-20.84959 1.72779 1.057707 -0.9327457 -0.2555327 -0.2543394 
0.982545 19.87629 -7.96773 -0.5513194 -0.4018862 -0.7311186 
10.49197 -21.76368 -1.952088 0.3456015 -0.9065097 -0.2424867 
10.11236 -21.57336 -5.03745 0.3437712 -0.8470861 -0.4052982 
11.04556 -21.57795 9.22266 0.2830776 -0.9416139 0.1822922 
18.31445 -19.99458 1.566228 0.4338225 -0.8810868 -0.1883723 
12.03385 -20.14605 -2.554152 0.5453047 -0.7195685 -0.4299582 
10.98857 -19.49301 -5.93637 0.5809093 -0.5644587 -0.5864561 
17.68711 -18.63858 -1.237059 0.3938762 -0.6094694 -0.6880471 
18.35588 -19.96857 5.14248 0.4449916 -0.8729105 0.2000247 
20.63428 -18.40884 1.568073 0.6788616 -0.6911837 -0.2478148 
13.82144 -0.77331 -4.44495 0.4735806 0.498235 -0.7262805 
14.45057 -18.97389 -2.027499 0.4995061 -0.5816764 -0.6419861 
-0.2754154 -3.88584 -9.396541 -0.223005 0.5616009 -0.7967893 
-4.216395 -22.03692 -8.695951 -0.0714245 -0.8117354 -0.5796415 
13.05956 -18.05055 -5.14734 0.6286476 -0.5678941 -0.5313177 
21.87403 -11.73627 1.595439 0.7716163 0.467805 -0.4310068 
20.85934 -15.80571 -0.918 0.6736326 -0.1990036 -0.7117702 
22.26937 -16.06089 1.363929 0.9386639 -0.1845436 -0.2912969 
18.0896 -15.72903 -1.987632 0.4317794 -0.1736316 -0.8851095 
-13.35299 17.89899 -15.98847 0.9991672 0.03954352 -0.01006346 
15.48197 -16.07433 -3.018558 0.6059828 -0.3893833 -0.6936609 
14.10353 -15.51069 -5.44977 0.709453 -0.2926404 -0.6411225 
-0.08848551 2.44569 -4.90866 -0.07668909 0.6397455 -0.7647512 
-7.287015 -21.59955 -8.09673 -0.757821 -0.1568091 -0.633339 
3.691308 -19.41381 -8.37351 0.1769589 -0.480664 -0.8588641 
-14.67365 -22.01814 -1.423524 -0.6502086 -0.5005924 -0.5715209 
19.51054 -10.96239 1.454331 0.7040626 0.5248322 -0.4783795 
12.72227 -7.57272 -7.549829 0.5320144 0.06050061 -0.8445711 
-3.722595 -19.54668 -8.66889 -0.3725504 0.3563778 -0.8568553 
11.79176 -16.85166 -7.26828 0.5557573 -0.3629398 -0.7479362 
-2.897985 -21.77937 15.10449 -0.2328426 -0.6806795 0.6945933 
10.08355 2.36139 -4.53705 0.4273235 0.5203148 -0.7393694 
14.76952 -11.92812 -5.67948 0.6616302 -0.1142202 -0.7410797 
17.7949 -12.07158 -1.828185 0.73527 0.13473 -0.6642484 
20.69426 -13.20924 -0.697902 0.5207288 0.3820998 -0.7634405 
-21.55097 6.16509 12.66717 -0.8881108 0.09282228 0.4501591 
19.02967 -8.4384 1.565376 0.9388922 0.226872 -0.2588637 
-15.91487 12.64149 -11.79309 0 -0.7071068 -0.7071068 
-7.640386 -19.42035 -5.46216 -0.6579316 0.5701546 -0.4919856 
-16.34219 21.02679 -14.41164 0.2893253 0.7849864 0.5478022 
-17.56775 20.96769 -14.31723 -0.3698128 0.8464239 0.3831515 
14.37332 3.22089 1.547922 0.7291035 0.6762929 -0.1050529 
-17.8954 17.98419 -9.13746 -0.732703 0.628601 0.2607817 
11.32817 -4.46931 -7.29441 0.4328619 0.3898892 -0.8127835 
-2.396325 -8.3667 15.14286 -0.602174 -0.1920596 0.7749192 
-14.2681 -21.72984 4.69359 -0.7737777 -0.5434205 0.3255184 
-14.18216 -21.80385 8.66091 -0.9515927 -0.2862909 -0.1118427 
-14.07989 -19.88988 8.96076 -0.7969809 0.5976774 -0.08719635 
-14.04788 -21.75978 11.4639 -0.5546663 -0.754926 0.3499029 
-15.03187 -22.11864 1.597953 -0.6933826 -0.7164903 0.07656505 
-15.13789 -19.76997 1.831662 -0.9142736 0.3910011 0.1059336 
-11.95679 -19.38117 5.83335 -0.8686793 0.4901228 0.07194377 
-13.79084 -19.89798 4.08804 -0.6459377 0.6130121 0.4549514 
-12.57578 -18.18615 1.712094 -0.6747699 0.7380266 0.001565428 
-1.766895 -12.63513 13.35576 -0.6670348 -0.2196922 0.7118988 
-13.81327 -10.82811 11.21037 -0.3079937 -0.6364668 0.7071422 
-0.542955 -8.02377 -11.70306 -0.02861447 0.1447743 -0.9890509 
-7.568055 -22.0209 -5.91258 -0.1368042 -0.9855711 -0.09967136 
3.177414 -21.93561 -6.23865 0.0806957 -0.9944966 -0.06681956 
-14.45548 -20.07765 -1.378899 -0.6527243 0.5659861 -0.5035979 
-6.269085 -19.75107 -8.09469 -0.3942145 0.4728149 -0.7880616 
-11.44942 -19.34163 -2.450022 -0.5696146 0.3820247 -0.7277337 
-7.255425 -19.71933 -3.172557 0.09519758 -0.6852722 -0.7220384 
-4.420695 -18.92982 -5.19849 -0.7405981 -0.007640027 -0.6719049 
-3.973425 -15.4284 -5.72862 -0.8643312 -0.1328632 -0.4850555 
-7.622655 -15.4707 -3.56481 -0.38566 -0.08829612 -0.9184064 
-11.26043 -15.3309 -1.767645 -0.5897514 -0.3158405 -0.7432618 
-2.607615 -15.26253 -8.654341 -0.6279269 -0.1751352 -0.758311 
-11.31754 2.910691 -4.18584 -0.1481491 0.4961533 -0.8555021 
-0.471615 -15.92676 -9.7329 -0.2213973 -0.3264209 -0.9189302 
-15.38074 -11.72679 -2.138343 -0.5131053 -0.6651831 -0.5424523 
-16.667 -12.70161 1.485057 -0.5900713 -0.7818546 -0.2012942 
-0.9688956 -12.14382 -11.13942 -0.4051501 -0.3061833 -0.8614553 
-3.475635 -12.09981 -8.889151 -0.8116211 -0.2382491 -0.5333934 
-4.593555 -12.3885 -6.02997 -0.6859818 -0.2471691 -0.6843512 
-0.08011536 -22.02804 -7.94778 0.122636 -0.686991 -0.7162428 
-17.96249 -10.35048 -1.402833 -0.6851525 -0.58592 -0.4327398 
9.796605 5.50359 -0.972705 0.3223535 0.8406919 -0.4351153 
-20.10953 -8.310451 1.418586 -0.8968512 -0.4059232 -0.1757389 
-18.55738 -8.37084 -2.095215 -0.7508676 -0.3598002 -0.5538426 
-4.043715 -8.48658 -9.54777 -0.8042614 -0.05799952 -0.5914386 
-5.406195 -7.78731 -6.98013 -0.6138092 -0.1522857 -0.7746272 
-15.19417 -8.2908 -5.10186 -0.4202743 -0.2839617 -0.8618209 
-10.13984 -22.05951 -4.04391 -0.7059609 -0.1909319 -0.6820295 
10.10584 -8.183909 -8.93874 0.4615927 0.08882929 -0.8826333 
0.9137847 -5.94939 -11.58243 0.03839673 0.3366515 -0.9408462 
0.05341452 -19.34739 -8.6607 -0.07035898 -0.2682075 -0.9607884 
-0.5517153 -2.950081 -7.61112 0 0 1 
-11.41624 -22.22313 -2.030559 -0.2854806 -0.8607851 -0.4213667 
7.356006 -2.97507 -7.55517 0.5773503 -0.5773503 0.5773503 
0.7813647 5.49279 -0.929898 -0.27277 0.9057587 -0.3243422 
10.50428 -15.76419 -8.356199 0.4306254 -0.2230277 -0.8745401 
2.387142 -8.50449 -11.56929 0.1381671 0.07652273 -0.9874483 
6.820923 -20.58753 -6.75762 0.04236118 -0.7441899 -0.6666235 
10.51771 -11.94744 -8.85516 0.4216063 -0.07191893 -0.9039224 
3.510915 6.09549 -1.028835 -0.1264684 0.9002401 -0.4166216 
7.127793 6.08649 -1.12467 0.08325668 0.9142035 -0.396611 
6.928062 -21.92949 -5.55306 -0.1077825 -0.9939018 -0.02328419 
14.19533 -21.55335 1.293411 0.2734549 -0.9216277 -0.275363 
7.123704 -18.53892 -8.08698 0.2077526 -0.4415426 -0.8728569 
9.545715 -18.12309 -7.71891 0.312185 -0.4848733 -0.8169691 
7.060383 -15.67542 -9.30294 0.2292276 -0.2774217 -0.9330016 
3.407886 -15.93645 -9.96402 0.09276018 -0.2983673 -0.9499329 
-5.152695 -15.19041 -3.62211 -0.5168538 -0.1508296 -0.8426818 
3.194496 -11.93535 -10.9557 0.1506313 -0.2265784 -0.9622746 
6.944865 -12.0405 -10.04949 0.2561521 -0.1534879 -0.9543729 
-11.84383 -12.77877 -3.048177 -0.2836991 -0.5738252 -0.7682705 
-7.435755 -11.32929 -5.01741 -0.2714537 -0.413126 -0.8692755 
-0.0234453 -11.16342 -11.64135 -0.0623695 -0.1752338 -0.9825493 
-11.42767 -10.63812 -5.01006 -0.150443 -0.5056968 -0.8494926 
-13.88839 -10.9467 -4.32957 -0.3457991 -0.5953498 -0.725246 
6.953808 -8.6112 -10.34919 0.311415 0.08124465 -0.9467946 
4.232838 -8.19228 -11.1903 0.2466222 0.1026885 -0.9636559 
-2.221515 -7.87749 -11.30586 -0.441838 0.162167 -0.8823158 
-7.127265 -8.58627 -6.1059 -0.2321017 -0.2788366 -0.9318686 
-16.82645 -9.01683 -3.83421 0.3417431 0.9397935 0 
-0.1704751 -21.7488 -6.03555 -0.01479695 -0.9432525 0.3317467 
-4.224975 -21.573 -5.56359 0.119 -0.7460787 0.655138 
3.442023 -20.8905 -4.52904 0.05053845 -0.9340293 0.353603 
-0.0862051 -20.85123 -4.80861 -0.08624697 -0.9153771 0.3932508 
7.508466 -21.65973 -2.123709 -0.4417831 -0.8941734 -0.07267458 
6.539436 -20.8071 -2.32614 -0.2680894 -0.9579116 -0.1026327 
3.46632 -20.64321 -1.949907 -0.00801984 -0.999882 0.01310288 
-0.03613551 -20.74596 -1.927044 0.01654464 -0.9997394 0.01573004 
-7.661115 -22.08588 -1.871436 0.3989682 -0.8744658 -0.2759238 
10.92478 -21.79533 1.325787 0.05927305 -0.9982182 -0.006870453 
-3.725745 -20.81025 -1.921551 -0.05534033 -0.9229805 -0.3808471 
6.784323 -21.87567 1.501974 -0.201368 -0.9714308 -0.125591 
5.558709 -21.0501 0.1121467 -0.3983816 -0.8868889 -0.2339236 
3.493983 -20.82504 1.598889 -0.1736027 -0.9792305 -0.1047363 
-7.490505 -22.03329 1.598271 0.002325868 -0.9992108 0.03965456 
-0.1137754 -20.83263 1.624893 0.02087008 -0.9994593 -0.02541045 
13.84672 -21.57528 5.45136 0.2406822 -0.9620807 0.1283465 
-11.25968 -22.24149 1.577928 -0.05139676 -0.9985803 0.01399164 
-3.293865 -20.88294 1.152039 0.01915059 -0.9994346 -0.02763805 
4.964022 -21.60639 2.93055 -0.3872744 -0.9154766 -0.1091846 
11.04484 -21.77319 5.72496 0.06059246 -0.997434 0.0381305 
-5.021625 -22.19991 1.979031 -0.08419397 -0.9900591 0.1126696 
6.856191 -21.94893 5.22261 -0.2186106 -0.9568399 0.1914861 
5.132409 -21.78384 3.85161 -0.2955023 -0.9552886 0.01010856 
15.27169 -21.04224 6.12894 0.2975411 -0.8807402 0.3684643 
3.478752 -20.87415 5.13834 -0.2372136 -0.9647238 0.1141833 
-5.325225 -21.81048 5.17419 0.20904 -0.977289 0.03476528 
-0.09421539 -20.86875 5.1699 0.02439288 -0.9995275 0.01870326 
-2.608815 -20.99985 5.1378 0.1033277 -0.9945331 0.01507834 
-11.64929 -22.22475 5.08443 -0.1888704 -0.9817474 0.02236404 
5.590466 -21.02931 6.5289 -0.2876629 -0.9085741 0.3028915 
8.255714 -21.67674 8.72328 -0.1667114 -0.9793432 0.1144299 
6.898506 -20.76093 8.72475 -0.2907683 -0.9287227 0.2300605 
3.458382 -20.65923 8.80404 -0.03188965 -0.9889359 0.1448754 
-4.674225 -21.6711 8.59356 0.1841569 -0.9828902 -0.003624442 
-3.083385 -20.85072 9.51243 0.2029509 -0.975225 0.0880181 
-0.1246054 -20.75055 8.711491 0.05274572 -0.9792535 0.195654 
-7.333995 -22.01667 8.81652 0.07293888 -0.995871 0.05404541 
9.821025 -21.64413 12.20724 0.4195498 -0.7164379 0.5574 
-11.38091 -22.05096 8.765039 -0.08490112 -0.9958333 0.03328346 
-14.56732 -13.99329 1.583124 -0.5140652 -0.8527255 -0.09271598 
3.283389 -21.81645 13.44525 0.2376202 -0.3366593 0.9111515 
-3.986655 -21.89973 12.81525 -0.4582322 -0.6455908 0.6109303 
-0.176895 -21.88335 13.58964 0.3407963 -0.8821425 0.3250882 
3 164 94 98 
3 224 335 49 
3 331 350 376 
3 124 122 237 
3 61 89 69 
3 61 161 94 
3 24 89 50 
3 109 25 35 
3 27 34 152 
3 444 443 435 
3 94 35 153 
3 3 61 69 
3 24 69 89 
3 38 218 104 
3 22 42 39 
3 14 24 34 
3 290 166 371 
3 226 76 224 
3 204 197 72 
3 82 3 14 
3 13 81 23 
3 99 13 23 
3 23 110 30 
3 110 2 30 
3 166 265 371 
3 90 61 3 
3 34 24 50 
3 293 167 207 
3 80 78 85 
3 61 94 164 
3 84 238 80 
3 4 161 61 
3 132 149 64 
3 196 22 228 
3 59 46 242 
3 179 84 80 
3 265 96 371 
3 52 258 207 
3 121 127 141 
3 343 168 346 
3 232 227 220 
3 232 243 227 
3 232 246 243 
3 57 126 56 
3 57 130 126 
3 221 232 220 
3 4 61 90 
3 134 80 85 
3 176 217 175 
3 4 0 161 
3 78 21 50 
3 126 130 129 
3 56 126 129 
3 111 182 201 
3 96 70 371 
3 89 164 98 
3 123 6 55 
3 197 87 72 
3 416 419 412 
3 245 80 179 
3 21 78 36 
3 61 164 89 
3 67 132 64 
3 150 149 132 
3 384 387 325 
3 214 221 112 
3 214 233 232 
3 221 214 232 
3 244 246 232 
3 233 244 232 
3 244 252 246 
3 244 143 119 
3 252 244 119 
3 127 142 141 
3 67 150 132 
3 82 90 3 
3 112 180 214 
3 244 253 143 
3 111 201 269 
3 37 74 63 
3 133 150 67 
3 118 133 67 
3 133 180 150 
3 191 214 180 
3 181 191 180 
3 191 234 233 
3 214 191 233 
3 234 244 233 
3 234 7 244 
3 244 98 253 
3 253 98 143 
3 216 217 115 
3 181 180 133 
3 15 16 219 
3 254 98 244 
3 7 254 244 
3 74 11 63 
3 14 3 24 
3 3 69 24 
3 217 216 175 
3 85 78 50 
3 73 78 80 
3 7 98 254 
3 105 133 118 
3 1 248 196 
3 48 241 100 
3 42 156 39 
3 149 173 344 
3 135 133 105 
3 106 135 105 
3 31 7 234 
3 148 31 234 
3 89 98 7 
3 31 89 7 
3 235 84 230 
3 14 27 236 
3 106 125 135 
3 19 20 62 
3 131 54 159 
3 34 50 21 
3 82 14 236 
3 201 52 43 
3 310 308 280 
3 131 159 54 
3 271 310 280 
3 27 14 34 
3 177 89 31 
3 238 73 80 
3 130 176 175 
3 354 331 381 
3 129 130 175 
3 125 136 135 
3 251 52 201 
3 106 56 125 
3 56 129 136 
3 125 56 136 
3 129 175 174 
3 136 129 174 
3 175 216 215 
3 174 175 215 
3 115 114 215 
3 216 115 215 
3 134 85 31 
3 85 177 31 
3 50 89 177 
3 85 50 177 
3 179 80 245 
3 400 407 367 
3 263 83 121 
3 217 179 115 
3 149 132 64 
3 178 187 116 
3 142 178 116 
3 326 120 319 
3 57 83 267 
3 304 391 294 
3 355 354 359 
3 128 29 11 
3 267 273 130 
3 48 16 10 
3 301 302 266 
3 196 66 22 
3 230 84 217 
3 247 13 243 
3 110 81 13 
3 271 178 266 
3 110 13 247 
3 278 277 267 
3 48 10 329 
3 258 11 275 
3 1 196 228 
3 154 247 243 
3 154 110 247 
3 263 141 270 
3 154 60 110 
3 60 154 110 
3 154 60 110 
3 11 74 37 
3 274 5 51 
3 252 154 243 
3 119 252 243 
3 109 110 60 
3 39 2 110 
3 109 39 110 
3 32 128 29 
3 32 128 11 
3 309 300 311 
3 252 119 154 
3 73 145 255 
3 67 64 259 
3 32 29 128 
3 258 275 43 
3 154 119 60 
3 119 109 60 
3 137 256 248 
3 270 267 83 
3 235 238 84 
3 267 130 57 
3 258 32 11 
3 302 310 271 
3 51 238 235 
3 266 302 271 
3 5 36 255 
3 51 235 230 
3 51 145 73 
3 286 51 230 
3 287 274 286 
3 119 25 109 
3 10 40 289 
3 120 48 329 
3 274 51 286 
3 276 230 217 
3 10 16 15 
3 51 5 145 
3 43 11 201 
3 176 276 217 
3 143 25 119 
3 158 207 167 
3 360 321 357 
3 130 273 276 
3 122 198 237 
3 270 278 267 
3 77 218 38 
3 15 6 40 
3 280 187 178 
3 271 280 178 
3 258 207 32 
3 66 58 22 
3 279 287 278 
3 155 139 172 
3 121 141 263 
3 288 41 274 
3 287 288 274 
3 276 176 130 
3 289 288 205 
3 274 41 5 
3 288 287 279 
3 329 10 289 
3 16 100 219 
3 127 178 142 
3 273 267 276 
3 252 119 243 
3 116 279 141 
3 41 123 5 
3 116 288 279 
3 142 116 141 
3 207 158 32 
3 276 277 230 
3 101 102 163 
3 299 298 294 
3 287 286 278 
3 5 255 145 
3 131 159 70 
3 275 11 43 
3 32 158 250 
3 205 288 116 
3 73 36 78 
3 120 329 319 
3 297 391 300 
3 84 179 217 
3 17 77 38 
3 255 36 73 
3 263 270 83 
3 249 248 1 
3 286 230 277 
3 11 37 66 
3 43 52 258 
3 267 277 276 
3 279 278 270 
3 141 279 270 
3 51 73 238 
3 47 36 5 
3 201 66 269 
3 201 11 66 
3 309 310 302 
3 300 309 302 
3 182 33 251 
3 278 286 277 
3 243 246 252 
3 416 427 419 
3 96 131 70 
3 66 256 111 
3 65 335 189 
3 113 374 407 
3 144 139 155 
3 226 224 139 
3 358 400 396 
3 30 91 203 
3 226 139 144 
3 46 328 242 
3 307 304 298 
3 70 159 54 
3 103 265 284 
3 443 261 446 
3 17 38 28 
3 88 200 239 
3 72 170 211 
3 138 17 28 
3 35 1 228 
3 295 299 294 
3 18 131 140 
3 18 59 131 
3 207 258 52 
3 188 70 54 
3 104 87 197 
3 222 48 120 
3 325 326 311 
3 326 281 120 
3 54 159 292 
3 386 299 295 
3 138 59 17 
3 48 100 16 
3 59 242 17 
3 296 121 83 
3 10 15 40 
3 242 91 17 
3 225 9 211 
3 314 322 384 
3 326 325 281 
3 170 225 211 
3 17 91 77 
3 144 76 226 
3 155 9 225 
3 159 131 28 
3 172 139 170 
3 131 138 28 
3 281 264 120 
3 264 222 120 
3 139 155 225 
3 139 225 170 
3 314 325 313 
3 386 295 390 
3 292 159 28 
3 132 149 344 
3 424 427 416 
3 49 335 65 
3 314 313 304 
3 111 269 66 
3 9 71 72 
3 211 9 72 
3 306 316 353 
3 307 314 304 
3 325 311 313 
3 40 41 288 
3 289 40 288 
3 40 6 41 
3 6 123 41 
3 22 39 109 
3 165 312 76 
3 299 307 298 
3 144 165 76 
3 312 107 76 
3 376 381 331 
3 165 107 312 
3 155 172 330 
3 35 228 22 
3 45 184 160 
3 42 62 156 
3 2 39 62 
3 58 42 22 
3 49 71 9 
3 280 116 187 
3 280 205 116 
3 155 330 144 
3 280 289 205 
3 319 280 308 
3 162 77 20 
3 20 77 91 
3 329 289 280 
3 319 329 280 
3 156 62 39 
3 372 408 375 
3 190 1 0 
3 1 35 0 
3 42 19 62 
3 35 161 0 
3 190 0 97 
3 35 22 109 
3 76 53 224 
3 161 35 94 
3 49 9 155 
3 224 49 155 
3 29 63 11 
3 160 162 19 
3 76 333 53 
3 153 25 143 
3 71 49 65 
3 2 20 30 
3 62 20 2 
3 55 8 5 
3 169 0 4 
3 6 8 55 
3 35 25 153 
3 160 218 162 
3 218 77 162 
3 15 334 6 
3 334 8 6 
3 332 76 93 
3 8 47 5 
3 98 153 143 
3 94 153 98 
3 219 334 15 
3 332 333 76 
3 93 76 107 
3 100 334 219 
3 160 19 45 
3 19 162 20 
3 340 132 344 
3 45 19 42 
3 27 47 8 
3 27 36 47 
3 80 115 179 
3 45 42 58 
3 71 184 45 
3 236 27 8 
3 334 236 8 
3 332 93 333 
3 27 152 36 
3 223 64 340 
3 236 334 117 
3 152 21 36 
3 134 148 115 
3 115 148 114 
3 152 34 21 
3 5 123 55 
3 337 68 191 
3 333 93 282 
3 256 66 196 
3 135 174 347 
3 183 180 195 
3 117 285 236 
3 182 111 63 
3 354 318 352 
3 114 234 68 
3 71 65 184 
3 135 136 174 
3 191 215 337 
3 337 215 114 
3 63 33 182 
3 133 135 181 
3 135 347 181 
3 110 23 81 
3 157 180 183 
3 149 157 183 
3 227 147 220 
3 12 23 30 
3 151 99 46 
3 174 215 191 
3 99 328 46 
3 114 148 234 
3 149 150 157 
3 220 147 284 
3 79 186 336 
3 68 234 191 
3 396 357 356 
3 99 23 12 
3 328 99 12 
3 337 114 68 
3 356 358 396 
3 338 343 342 
3 223 340 339 
3 265 103 96 
3 341 223 339 
3 347 174 191 
3 182 251 201 
3 134 115 80 
3 12 30 203 
3 345 343 338 
3 147 227 103 
3 33 108 251 
3 95 20 91 
3 181 347 191 
3 345 346 343 
3 157 150 180 
3 103 227 18 
3 66 240 58 
3 345 344 346 
3 146 32 108 
3 445 125 444 
3 30 95 91 
3 124 373 374 
3 137 249 72 
3 344 345 338 
3 344 168 346 
3 12 203 328 
3 284 147 103 
3 240 66 37 
3 344 173 168 
3 314 384 322 
3 107 282 93 
3 76 53 107 
3 107 53 282 
3 282 53 333 
3 165 76 107 
3 315 202 291 
3 165 144 76 
3 407 374 367 
3 144 53 76 
3 388 389 92 
3 155 144 330 
3 144 224 53 
3 432 431 434 
3 155 189 144 
3 144 189 224 
3 189 335 53 
3 224 189 53 
3 146 29 32 
3 382 88 209 
3 331 316 350 
3 331 353 316 
3 357 367 366 
3 360 357 366 
3 367 374 373 
3 366 367 373 
3 373 407 374 
3 388 92 169 
3 170 65 155 
3 155 65 189 
3 328 203 91 
3 413 421 414 
3 356 331 358 
3 242 328 91 
3 168 343 346 
3 113 198 122 
3 124 113 122 
3 239 200 315 
3 331 356 357 
3 372 26 102 
3 375 372 102 
3 26 163 102 
3 408 372 375 
3 72 87 65 
3 170 72 65 
3 87 184 65 
3 63 108 11 
3 63 29 108 
3 370 285 231 
3 389 370 231 
3 131 18 140 
3 33 63 108 
3 368 306 321 
3 374 113 124 
3 285 324 268 
3 231 285 268 
3 336 272 186 
3 224 155 139 
3 363 369 372 
3 86 193 163 
3 208 63 111 
3 380 305 202 
3 356 357 321 
3 346 354 352 
3 346 168 354 
3 168 359 354 
3 364 290 369 
3 363 364 369 
3 290 371 372 
3 369 290 372 
3 371 70 26 
3 372 371 26 
3 70 188 26 
3 188 54 26 
3 54 163 26 
3 54 86 163 
3 54 28 86 
3 28 38 86 
3 38 197 86 
3 38 104 197 
3 104 218 87 
3 218 160 87 
3 160 184 87 
3 58 240 208 
3 240 37 63 
3 208 240 63 
3 340 64 132 
3 343 168 346 
3 400 367 357 
3 396 400 357 
3 54 292 28 
3 96 103 18 
3 346 168 343 
3 249 137 248 
3 200 209 199 
3 79 222 281 
3 327 308 309 
3 343 346 352 
3 383 388 169 
3 200 88 209 
3 285 186 324 
3 241 48 79 
3 16 100 79 
3 303 100 79 
3 323 105 451 
3 100 303 186 
3 100 16 79 
3 321 353 331 
3 236 285 370 
3 389 231 92 
3 100 285 117 
3 108 63 11 
3 186 303 79 
3 88 382 209 
3 82 236 389 
3 100 241 79 
3 45 72 71 
3 0 169 97 
3 45 137 72 
3 285 100 186 
3 137 45 58 
3 199 378 305 
3 208 137 58 
3 356 331 357 
3 305 380 202 
3 378 349 305 
3 169 92 315 
3 192 262 75 
3 361 192 75 
3 291 202 237 
3 258 293 207 
3 272 79 377 
3 324 186 268 
3 268 186 88 
3 90 389 388 
3 169 315 291 
3 97 169 291 
3 79 320 377 
3 4 383 169 
3 379 317 368 
3 200 202 315 
3 92 239 315 
3 306 353 321 
3 370 389 236 
3 48 222 79 
3 206 361 185 
3 361 206 185 
3 92 231 239 
3 356 321 331 
3 190 171 185 
3 249 190 185 
3 206 198 361 
3 198 192 361 
3 90 388 383 
3 305 124 237 
3 327 311 326 
3 4 90 383 
3 190 249 1 
3 206 361 185 
3 171 206 185 
3 202 305 237 
3 108 29 146 
3 308 310 309 
3 334 100 117 
3 90 82 389 
3 79 336 186 
3 224 53 335 
3 354 381 318 
3 231 268 239 
3 186 272 209 
3 88 186 209 
3 200 199 202 
3 327 326 319 
3 308 327 319 
3 309 311 327 
3 435 443 446 
3 199 305 202 
3 97 171 190 
3 171 97 206 
3 97 291 206 
3 237 198 206 
3 291 237 206 
3 406 124 305 
3 399 402 400 
3 373 374 407 
3 300 304 311 
3 304 313 311 
3 407 213 113 
3 208 111 256 
3 403 402 399 
3 363 403 399 
3 29 128 32 
3 403 375 402 
3 363 399 359 
3 194 192 198 
3 193 86 75 
3 400 213 407 
3 272 336 79 
3 79 281 320 
3 300 302 297 
3 294 298 304 
3 299 322 314 
3 307 299 314 
3 322 384 314 
3 377 281 325 
3 387 377 325 
3 281 377 320 
3 355 358 331 
3 101 102 262 
3 363 375 403 
3 197 204 75 
3 102 101 262 
3 299 384 322 
3 262 163 193 
3 318 343 352 
3 299 322 384 
3 299 393 322 
3 322 393 384 
3 137 208 256 
3 86 197 75 
3 186 79 336 
3 222 264 281 
3 185 361 75 
3 365 360 366 
3 386 392 393 
3 299 386 393 
3 393 392 384 
3 392 394 384 
3 394 398 387 
3 384 394 387 
3 404 377 387 
3 398 404 387 
3 404 209 377 
3 209 272 377 
3 399 400 358 
3 359 399 358 
3 101 163 262 
3 262 193 75 
3 102 101 375 
3 204 72 249 
3 31 148 134 
3 424 437 427 
3 359 358 355 
3 400 402 213 
3 204 249 185 
3 351 317 386 
3 390 351 386 
3 317 392 386 
3 392 317 394 
3 317 395 394 
3 395 397 398 
3 394 395 398 
3 397 405 404 
3 398 397 404 
3 199 209 404 
3 405 199 404 
3 268 88 239 
3 75 204 185 
3 318 352 354 
3 243 18 227 
3 397 385 405 
3 385 199 405 
3 262 192 194 
3 101 262 194 
3 18 131 96 
3 349 378 199 
3 385 349 199 
3 250 158 167 
3 293 250 167 
3 379 362 395 
3 317 379 395 
3 395 362 397 
3 362 365 397 
3 365 401 397 
3 401 349 385 
3 397 401 385 
3 375 194 213 
3 213 194 113 
3 375 101 194 
3 354 352 318 
3 342 343 318 
3 375 213 402 
3 451 261 443 
3 32 250 293 
3 258 32 293 
3 113 194 198 
3 351 409 368 
3 355 331 354 
3 339 340 344 
3 372 375 363 
3 339 344 338 
3 368 321 379 
3 360 362 379 
3 360 365 362 
3 366 365 362 
3 365 366 362 
3 406 349 401 
3 365 406 401 
3 108 258 52 
3 258 108 32 
3 305 349 406 
3 297 302 301 
3 52 251 108 
3 321 360 379 
3 384 325 314 
3 373 406 365 
3 366 373 365 
3 373 349 406 
3 349 373 406 
3 373 124 406 
3 106 105 323 
3 439 434 431 
3 18 243 229 
3 83 57 260 
3 447 83 260 
3 418 425 429 
3 439 441 434 
3 441 442 434 
3 257 106 323 
3 391 425 418 
3 435 437 444 
3 257 323 452 
3 391 418 294 
3 296 440 441 
3 440 296 441 
3 131 59 138 
3 294 413 295 
3 95 30 20 
3 428 432 434 
3 422 424 415 
3 294 420 413 
3 425 296 429 
3 414 422 415 
3 425 121 296 
3 296 440 431 
3 452 323 451 
3 296 83 447 
3 431 441 439 
3 445 444 436 
3 429 296 431 
3 450 56 106 
3 301 121 433 
3 106 257 452 
3 414 415 411 
3 390 413 386 
3 18 229 59 
3 59 229 46 
3 386 414 411 
3 301 433 425 
3 248 256 196 
3 411 416 412 
3 300 391 304 
3 422 436 424 
3 46 229 151 
3 127 121 301 
3 412 419 356 
3 295 413 390 
3 351 390 411 
3 442 56 125 
3 409 351 412 
3 247 243 13 
3 330 172 155 
3 451 118 67 
3 364 44 290 
3 290 44 166 
3 166 210 265 
3 265 210 284 
3 442 436 434 
3 229 99 151 
3 364 449 44 
3 449 283 44 
3 418 420 294 
3 363 449 364 
3 212 284 210 
3 44 210 166 
3 420 428 422 
3 44 212 210 
3 247 229 243 
3 229 247 99 
3 127 266 178 
3 56 450 260 
3 413 420 421 
3 359 168 363 
3 363 168 449 
3 415 424 416 
3 296 447 260 
3 212 220 284 
3 436 437 424 
3 351 411 412 
3 440 441 431 
3 283 212 44 
3 451 67 261 
3 168 173 449 
3 449 173 283 
3 426 342 318 
3 381 426 318 
3 212 348 220 
3 266 127 301 
3 426 338 342 
3 149 283 173 
3 149 212 283 
3 438 338 426 
3 433 121 425 
3 149 183 212 
3 414 421 422 
3 172 170 155 
3 368 317 351 
3 350 381 376 
3 67 259 261 
3 183 112 212 
3 212 112 348 
3 348 112 220 
3 432 431 434 
3 448 339 338 
3 438 448 338 
3 420 431 432 
3 112 221 220 
3 428 420 432 
3 431 432 434 
3 417 381 350 
3 422 428 434 
3 423 426 381 
3 417 423 381 
3 56 260 57 
3 451 105 118 
3 296 260 440 
3 386 413 414 
3 306 350 316 
3 448 341 339 
3 415 416 411 
3 436 444 437 
3 259 341 448 
3 297 425 391 
3 442 125 445 
3 450 106 452 
3 410 350 306 
3 341 259 223 
3 355 417 350 
3 410 355 350 
3 259 64 223 
3 410 356 350 
3 356 410 350 
3 356 355 410 
3 355 419 417 
3 247 13 99 
3 195 112 183 
3 180 112 195 
3 419 355 356 
3 301 425 297 
3 390 386 411 
3 446 259 448 
3 446 261 259 
3 434 436 422 
3 421 420 422 
3 409 410 306 
3 368 409 306 
3 412 356 410 
3 409 412 410 
3 442 445 436 
3 435 423 430 
