ply
format ascii 1.0
comment VCGLIB generated
element vertex 144
property float x
property float y
property float z
property float nx
property float ny
property float nz
element face 280
property list uchar int vertex_indices
end_header
0.007991374 34.91566 8.658649 0.1793609 -1.308619 -1.796493 
0.04292136 42.52233 11.42535 0.003172696 3.535306 -3.001863 
1.849721 34.91567 9.328989 1.025023 -1.253307 -1.205908 
0.1387013 42.52233 11.46021 1.934599 3.522352 -2.297395 
0.1896714 42.52233 11.54848 2.964443 3.493541 -0.5176797 
2.773591 34.2824 10.96438 0.57786 -0.8850976 -0.1933148 
2.489341 34.91566 12.95649 1.41149 -1.270209 0.969851 
0.1719714 42.52233 11.64886 2.602537 3.495087 1.505392 
0.9879514 34.91566 14.21631 0.7615587 -1.258829 1.566311 
0.09388137 42.52233 11.71438 1.029637 3.49368 2.824947 
-0.008048639 42.52233 11.71438 -1.025127 3.49012 2.829671 
-1.028069 34.2824 14.15435 -0.4472457 -1.249134 0.9635608 
-2.473369 34.91566 12.95649 -1.492694 -1.253082 0.7207621 
-0.08612864 42.52233 11.64886 -2.598731 3.518081 1.506751 
-0.1038286 42.52233 11.54848 -2.957246 3.532442 -0.5175185 
-2.813709 34.91566 11.02634 -1.910783 -1.301867 -0.03599158 
-0.05285864 42.52233 11.46021 -1.931021 3.532415 -2.300672 
-1.889839 34.2824 9.267029 -0.6906685 -1.212711 -0.9086375 
-10.05122 0.2167883 10.06775 0.6511363 -6.005945 0.381769 
-6.687119 -0.416481 4.081829 1.793717 -5.949969 0.5598277 
-8.863399 0.2167883 16.80423 1.398953 -5.982974 -0.6738955 
-3.679439 1.524299 21.13919 1.478184 -4.260582 -2.433261 
-0.2031486 2.157558 1.80423 0.4401761 -4.345307 2.431553 
3.217052 2.157558 21.20116 -0.8928154 -4.238519 -2.405528 
6.224731 2.157558 4.143789 -2.03784 -4.237978 1.759003 
8.457111 0.2167883 16.80423 -2.32011 -5.827563 -0.1287048 
9.644932 0.2167883 10.06775 -3.228369 -5.249557 0.09907785 
-7.816078 -0.929801 2.68335 -0.7693475 -1.072097 -1.204555 
-11.77336 -0.2965412 9.69669 -1.753052 -1.13389 -0.2600401 
-5.845179 5.084858 5.018249 -1.196461 -2.108585 -1.466296 
-8.778069 5.718119 10.25727 -1.646196 -2.072224 -0.1503562 
-0.2172986 -0.2965412 -9.536743e-07 0.01055536 -0.3437234 -0.3027701 
-0.1716486 5.718119 3.035629 0.1351542 -2.091044 -1.684078 
-10.37953 -0.2965412 17.6015 -1.522904 -1.135369 0.8461581 
-7.740008 5.718119 16.1444 -1.468485 -2.076042 0.6888072 
-4.286769 -0.929801 22.69904 0.01027382 -0.3780172 0.3610258 
-3.216719 5.084858 19.92499 -0.6524362 -2.086799 1.714051 
3.796081 -0.2965412 22.76101 0.08832258 -0.2925998 0.2333217 
2.817321 5.718119 19.98696 0.6797564 -2.100179 1.440299 
9.944931 -0.2965412 17.60151 1.2307 -1.087229 0.9653782 
7.396701 5.718119 16.1444 1.347377 -2.10696 0.912076 
11.28268 -0.929801 9.634729 1.022384 -0.9934909 -0.2127149 
8.434761 5.718119 10.25727 0.8417518 -1.653071 -0.2826586 
7.325392 -0.2965412 2.745319 0.1601285 -0.4123255 -0.3933908 
5.445782 5.718119 5.080209 1.113935 -2.121048 -1.334168 
-1.778559 35.41657 11.29919 -1.264734 -1.999754 0.2981037 
-1.216439 34.7833 10.16647 -1.158245 -2.261978 -1.783882 
-4.855199 27.18061 10.72133 -1.810143 -1.304359 -0.1635415 
-3.239509 26.54734 7.763759 -0.8694925 -1.273386 -1.083841 
-0.04149864 27.18061 6.682159 0.09629632 -1.310463 -1.791707 
0.001491368 35.41657 9.80555 0.4574617 -2.137805 -1.321688 
-1.563859 35.41657 12.51681 -1.223211 -2.005753 0.1464607 
-4.274598 27.18061 14.01409 -1.512478 -1.287548 0.7869927 
-0.6727986 34.7833 13.2496 -0.9756441 -2.053633 1.793289 
-1.769369 26.54735 16.10133 -0.4951539 -1.308961 1.239055 
0.6197013 35.41657 13.31156 0.8794227 -1.943484 0.7826165 
1.630281 27.18061 16.16329 0.6631076 -1.272459 1.583411 
1.566841 35.41657 12.51681 0.839467 -2.024745 0.9154903 
4.191591 27.18061 14.01409 1.462391 -1.316292 0.9522338 
4.716111 26.54734 10.65936 0.7837557 -1.00898 -0.2191173 
1.781541 35.41657 11.29919 0.4505232 -1.426945 -0.4753398 
1.163341 35.41657 10.22843 0.9418643 -2.293091 -1.145415 
3.100421 27.18061 7.825719 1.082249 -1.299803 -1.259433 
-0.09588863 18.67898 4.488089 0.06657025 -1.324103 -1.873548 
-0.04345863 27.70608 8.047899 0.286103 -2.263262 -1.517997 
4.489001 18.67898 6.156859 1.1564 -1.325018 -1.352525 
2.275172 27.70608 8.891819 1.036748 -2.334313 -1.252498 
3.508891 27.70608 11.02868 0.5990533 -1.579159 -0.4015823 
6.872492 18.04571 10.32036 0.9806784 -1.108205 -0.2414549 
6.081322 18.67898 15.18734 1.560153 -1.338838 0.9810113 
3.080421 27.70608 13.45863 1.083698 -2.176052 0.9421291 
1.190261 27.70608 15.04467 0.7779688 -2.178123 1.118817 
2.343681 18.67898 18.3236 0.6719648 -1.302588 1.688933 
-1.333269 27.07282 14.98271 -0.7530682 -2.251097 1.718322 
-2.591559 18.04572 18.26163 -0.5568287 -1.348524 1.452166 
-3.167349 27.70608 13.45863 -1.347958 -2.184194 0.4238003 
-6.273108 18.67898 15.18734 -1.596018 -1.30771 0.8602678 
-3.595809 27.70608 11.02868 -1.468444 -2.189526 0.06319642 
-7.120358 18.67898 10.38232 -1.86661 -1.316449 -0.2264445 
-4.736878 18.04572 6.094889 -1.006858 -1.314333 -1.229296 
-2.418179 27.07281 8.829849 -1.17792 -2.367807 -1.579659 
-5.600669 19.1996 10.73024 -1.697209 -2.341798 -0.06195783 
-3.743989 18.56633 7.355259 -1.274642 -2.441234 -1.622996 
-8.791228 11.04043 10.14197 -1.694573 -1.280593 -0.2197728 
-5.844439 10.40717 4.87886 -0.9556923 -1.274869 -1.155019 
-0.1447586 11.04043 2.886729 0.05268466 -1.291146 -1.7192 
-0.09305864 19.1996 6.108799 0.2109196 -2.385156 -1.738613 
-4.936369 19.1996 14.49767 -1.533586 -2.345816 0.6277652 
-7.748339 11.04044 16.0565 -1.4514 -1.269931 0.7912947 
-2.061919 18.56633 16.89473 -0.7440267 -2.377422 1.85095 
-3.203738 10.40717 19.85497 -0.511606 -1.294788 1.357413 
1.819721 19.1996 16.95669 0.7808586 -2.360264 1.415328 
2.858121 11.04044 19.91694 0.5998164 -1.268765 1.532642 
4.750261 19.1996 14.49768 1.329108 -2.339777 1.015739 
7.458812 11.04043 16.0565 1.422093 -1.305423 0.895471 
8.445611 10.40717 10.08001 0.864495 -1.018814 -0.2078236 
5.414561 19.1996 10.73024 0.8131316 -1.819519 -0.3790573 
3.501791 19.1996 7.417219 1.166007 -2.428311 -1.399804 
5.498811 11.04044 4.940819 1.067415 -1.292664 -1.246479 
-0.1826286 5.122579 1.2272 0.0368236 -1.148071 -1.706957 
-0.1372586 11.61717 4.380349 0.1455993 -2.055802 -1.518597 
6.550411 5.122589 3.677829 1.068908 -1.160708 -1.257867 
4.595151 11.61718 6.102809 1.005313 -2.084637 -1.211279 
7.113221 11.61717 10.46423 0.6125433 -1.405638 -0.3042774 
10.0769 4.489318 9.82107 0.9783908 -0.9997331 -0.2257523 
8.888772 5.122589 16.93932 1.441431 -1.179819 0.8956558 
6.238711 11.61718 15.42385 1.150522 -1.997746 0.8643439 
2.380801 11.61718 18.66101 0.6305413 -2.024609 1.242597 
3.399951 5.122589 21.54499 0.5963549 -1.145953 1.555428 
-3.821289 4.489318 21.48303 -0.529955 -1.183581 1.416078 
-2.711419 10.98391 18.59905 -0.5963329 -2.044091 1.54814 
-6.513228 11.61718 15.42385 -1.312683 -2.008506 0.5685144 
-9.254028 5.122589 16.93932 -1.459037 -1.14162 0.805787 
-7.387738 11.61717 10.46423 -1.472307 -2.018634 -0.1083872 
-10.49824 5.122579 9.883029 -1.686522 -1.142808 -0.2403913 
-6.971759 4.489318 3.615859 -0.9781135 -1.152643 -1.180826 
-4.925769 10.98391 6.040849 -1.091588 -2.102354 -1.366204 
-0.3376086 -2.891912 8.55415 -4.947186e-06 0.01246484 -6.047518 
-0.3376086 3.050378 7.468139 -4.768372e-07 1.932547 -2.795573 
1.463821 -2.891912 9.209809 3.887255 0.01246428 -4.632672 
2.161891 3.050378 8.377879 1.796955 1.932546 -2.141535 
3.491852 3.050378 10.68143 2.753099 1.932543 -0.4854469 
2.422341 -2.891912 10.87001 5.955637 0.01246476 -1.050146 
2.089451 -2.891912 12.75793 5.237299 0.01246557 3.023757 
3.029961 3.050378 13.30093 2.421036 1.932546 1.397786 
0.6209114 -2.891912 13.99018 2.068355 0.01246364 5.682806 
0.9923514 3.050378 15.01069 0.9561426 1.932545 2.626977 
-1.667559 3.050378 15.01069 -0.9561424 1.932545 2.626977 
-1.296129 -2.891912 13.99017 -2.068385 0.01246224 5.682803 
-2.764658 -2.891912 12.75793 -5.237299 0.01246433 3.023758 
-3.705168 3.050378 13.30093 -2.421036 1.932547 1.397786 
-4.167059 3.050378 10.68143 -2.753101 1.932546 -0.4854428 
-3.097549 -2.891912 10.87001 -5.955637 0.01246345 -1.050144 
-2.837109 3.050378 8.377879 -1.796957 1.932541 -2.14153 
-2.139029 -2.891912 9.209809 -3.887259 0.0124644 -4.63267 
-2.837109 -8.704082 8.377879 -1.794207 -1.921902 -2.138251 
-0.3376086 -8.704082 7.468139 1.788139e-07 -1.921908 -2.791293 
-4.167059 -8.704082 10.68143 -2.748886 -1.921906 -0.4847001 
-3.705168 -8.704082 13.30093 -2.41733 -1.921908 1.395646 
2.161891 -8.704082 8.377879 1.794204 -1.921906 -2.138257 
-1.667559 -8.704082 15.01069 -0.9546776 -1.921904 2.622955 
3.491852 -8.704082 10.68143 2.748884 -1.921904 -0.4847035 
0.9923514 -8.704082 15.01069 0.9546772 -1.921905 2.622955 
3.029961 -8.704082 13.30093 2.417331 -1.921908 1.395646 
3 0 1 2 
3 61 0 2 
3 61 2 60 
3 61 60 62 
3 62 50 61 
3 49 50 62 
3 49 62 66 
3 64 49 66 
3 65 64 66 
3 66 67 65 
3 67 68 65 
3 65 68 96 
3 97 65 96 
3 97 96 98 
3 98 86 97 
3 86 63 97 
3 79 63 86 
3 82 79 86 
3 85 82 86 
3 84 82 85 
3 84 85 100 
3 116 84 100 
3 99 116 100 
3 99 100 101 
3 99 101 44 
3 32 99 44 
3 31 32 44 
3 43 31 44 
3 43 44 42 
3 41 43 42 
3 41 42 40 
3 39 41 40 
3 39 40 38 
3 37 39 38 
3 37 38 36 
3 35 37 36 
3 35 36 34 
3 33 35 34 
3 33 34 30 
3 28 33 30 
3 28 30 29 
3 27 28 29 
3 27 29 32 
3 29 115 32 
3 114 115 29 
3 116 115 114 
3 113 116 114 
3 113 114 112 
3 111 113 112 
3 109 111 112 
3 109 112 34 
3 110 111 109 
3 109 108 110 
3 108 107 110 
3 107 92 110 
3 92 90 110 
3 89 90 92 
3 91 89 92 
3 91 92 94 
3 93 91 94 
3 94 96 93 
3 95 96 94 
3 95 94 106 
3 103 95 106 
3 105 103 106 
3 106 107 105 
3 104 103 105 
3 104 105 40 
3 103 104 101 
3 102 103 101 
3 102 98 103 
3 85 98 102 
3 101 104 42 
3 98 95 103 
3 106 94 107 
3 93 69 91 
3 69 72 91 
3 71 72 69 
3 70 71 69 
3 69 67 70 
3 67 59 70 
3 59 58 70 
3 59 60 58 
3 58 60 57 
3 57 55 58 
3 55 56 58 
3 58 56 71 
3 71 56 73 
3 56 54 73 
3 73 54 75 
3 73 75 74 
3 73 74 72 
3 72 74 89 
3 89 74 87 
3 74 76 87 
3 87 76 81 
3 87 81 88 
3 87 88 90 
3 90 88 111 
3 81 83 88 
3 88 83 113 
3 81 82 83 
3 81 78 82 
3 76 78 81 
3 77 78 76 
3 75 77 76 
3 75 52 77 
3 52 47 77 
3 77 47 80 
3 47 48 80 
3 80 48 64 
3 63 80 64 
3 46 48 47 
3 45 46 47 
3 45 15 46 
3 15 17 46 
3 46 17 50 
3 17 0 50 
3 17 16 0 
3 16 17 15 
3 14 16 15 
3 14 15 12 
3 13 14 12 
3 12 10 13 
3 10 7 13 
3 7 4 13 
3 6 4 7 
3 6 7 8 
3 6 8 55 
3 55 8 53 
3 8 11 53 
3 53 11 51 
3 53 51 54 
3 51 52 54 
3 51 45 52 
3 51 12 45 
3 11 12 51 
3 10 11 8 
3 9 10 8 
3 8 7 9 
3 5 4 6 
3 5 6 57 
3 4 5 2 
3 3 4 2 
3 4 3 14 
3 9 7 10 
3 11 10 12 
3 13 4 14 
3 14 3 16 
3 3 1 16 
3 12 15 45 
3 48 46 49 
3 45 47 52 
3 77 80 78 
3 80 79 78 
3 75 76 74 
3 54 52 75 
3 53 54 56 
3 55 53 56 
3 57 6 55 
3 60 5 57 
3 62 59 67 
3 70 58 71 
3 71 73 72 
3 68 69 93 
3 91 72 89 
3 89 87 90 
3 94 92 107 
3 107 108 105 
3 105 108 38 
3 108 109 36 
3 110 90 111 
3 111 88 113 
3 112 114 30 
3 113 83 116 
3 28 27 19 
3 18 28 19 
3 18 19 20 
3 20 33 18 
3 20 19 21 
3 21 35 20 
3 19 22 21 
3 21 22 23 
3 23 37 21 
3 22 24 23 
3 23 24 25 
3 25 39 23 
3 24 26 25 
3 26 41 25 
3 24 43 26 
3 22 31 24 
3 27 31 22 
3 19 27 22 
3 30 114 29 
3 33 28 18 
3 34 112 30 
3 35 33 20 
3 36 109 34 
3 37 35 21 
3 38 108 36 
3 39 37 23 
3 40 105 38 
3 41 39 25 
3 42 104 40 
3 43 41 26 
3 31 43 24 
3 31 27 32 
3 115 99 32 
3 44 101 42 
3 101 100 102 
3 115 116 99 
3 83 84 116 
3 100 85 102 
3 82 84 83 
3 78 79 82 
3 79 80 63 
3 85 86 98 
3 96 95 98 
3 63 65 97 
3 96 68 93 
3 68 67 69 
3 63 64 65 
3 48 49 64 
3 66 62 67 
3 49 46 50 
3 60 59 62 
3 60 2 5 
3 50 0 61 
3 2 1 3 
3 0 16 1 
3 117 118 119 
3 139 117 119 
3 119 122 139 
3 122 141 139 
3 139 141 140 
3 138 139 140 
3 140 128 138 
3 138 128 129 
3 129 132 138 
3 132 137 138 
3 137 136 138 
3 135 136 137 
3 134 135 137 
3 135 134 136 
3 136 134 117 
3 134 133 117 
3 133 134 132 
3 131 133 132 
3 118 133 131 
3 130 118 131 
3 130 131 129 
3 129 127 130 
3 127 120 130 
3 121 120 127 
3 126 121 127 
3 126 127 125 
3 125 124 126 
3 123 124 125 
3 142 123 125 
3 125 128 142 
3 143 123 142 
3 141 143 142 
3 143 122 123 
3 122 121 123 
3 123 121 124 
3 127 128 125 
3 124 121 126 
3 120 121 119 
3 120 118 130 
3 132 134 137 
3 131 132 129 
3 128 127 129 
3 128 140 142 
3 136 139 138 
3 140 141 142 
3 141 122 143 
3 121 122 119 
3 136 117 139 
3 119 118 120 
3 117 133 118 
