ply
format ascii 1.0
comment VCGLIB generated
element vertex 300
property float x
property float y
property float z
property float nx
property float ny
property float nz
property float texture_u
property float texture_v
element face 172
property list uchar int vertex_indices
end_header
0.1021356 0.4007807 0.05896796 0 -1 4.371139e-08 0.696850 0.408077
0 0.4007807 0.117936 0 -1 4.371139e-08 0.500000 0.408077
0.1021356 0.4007808 -0.058968 0 -1 4.371139e-08 0.696850 0.408077
0.03264886 0.4007808 0.01884971 0 -1 4.371139e-08 0.562926 0.408077
0 0.4007808 0.03769968 0 -1 4.371139e-08 0.500000 0.408077
-0.03264886 0.4007808 0.01884971 0 -1 4.371139e-08 0.437074 0.408077
-0.1021356 0.4007807 0.05896796 0 -1 4.371139e-08 0.303150 0.408077
-0.03264886 0.4007808 -0.01884991 0 -1 4.371139e-08 0.437074 0.408077
0.03264886 0.4007808 -0.01884991 0 -1 4.371139e-08 0.562926 0.408077
0 0.4007808 -0.117936 0 -1 4.371139e-08 0.500000 0.408077
0 0.4007808 -0.03769987 0 -1 4.371139e-08 0.500000 0.408077
-0.1021356 0.4007808 -0.058968 0 -1 4.371139e-08 0.303150 0.408077
0.2042712 0.4493807 0.117936 0.4296716 -0.9029853 3.947074e-08 0.893701 0.457007
0.1021356 0.4007807 0.05896796 0.4296716 -0.9029853 3.947074e-08 0.696850 0.408077
0.2042712 0.4493808 -0.117936 0.4296716 -0.9029853 3.947074e-08 0.893701 0.457007
0.1021356 0.4007808 -0.058968 0.4296716 -0.9029853 3.947074e-08 0.696850 0.408077
0.2042712 0.4493807 0.117936 0.2148233 -0.9029959 0.3720877 0.893701 0.457007
0 0.4493807 0.235872 0.2148233 -0.9029959 0.3720877 0.500000 0.457007
0.1021356 0.4007807 0.05896796 0.2148233 -0.9029959 0.3720877 0.696850 0.408077
0 0.4007807 0.117936 0.2148233 -0.9029959 0.3720877 0.500000 0.408077
0 0.4007807 0.117936 -0.2148233 -0.9029959 0.3720877 0.500000 0.408077
0 0.4493807 0.235872 -0.2148233 -0.9029959 0.3720877 0.500000 0.457007
-0.1021356 0.4007807 0.05896796 -0.2148233 -0.9029959 0.3720877 0.303150 0.408077
-0.2042712 0.4493807 0.117936 -0.2148233 -0.9029959 0.3720877 0.106299 0.457007
0.2042712 0.4493808 -0.117936 0.2148233 -0.9029959 -0.3720877 0.893701 0.457007
0.1021356 0.4007808 -0.058968 0.2148233 -0.9029959 -0.3720877 0.696850 0.408077
0 0.4493808 -0.235872 0.2148233 -0.9029959 -0.3720877 0.500000 0.457007
0 0.4007808 -0.117936 0.2148233 -0.9029959 -0.3720877 0.500000 0.408077
-0.1021356 0.4007807 0.05896796 -0.4296716 -0.9029853 3.947074e-08 0.303150 0.408077
-0.2042712 0.4493807 0.117936 -0.4296716 -0.9029853 3.947074e-08 0.106299 0.457007
-0.1021356 0.4007808 -0.058968 -0.4296716 -0.9029853 3.947074e-08 0.303150 0.408077
-0.2042712 0.4493808 -0.117936 -0.4296716 -0.9029853 3.947074e-08 0.106299 0.457007
0 0.4007808 -0.117936 -0.2148233 -0.9029959 -0.3720877 0.500000 0.408077
-0.1021356 0.4007808 -0.058968 -0.2148233 -0.9029959 -0.3720877 0.303150 0.408077
0 0.4493808 -0.235872 -0.2148233 -0.9029959 -0.3720877 0.500000 0.457007
-0.2042712 0.4493808 -0.117936 -0.2148233 -0.9029959 -0.3720877 0.106299 0.457007
0 0.5809247 0.2995574 -0.4962471 0.122322 0.8595209 0.500000 0.589444
0 0.8966302 0.2546238 -0.4962471 0.122322 0.8595209 0.500000 0.907294
-0.2594244 0.5809247 0.1497787 -0.4962471 0.122322 0.8595209 0.000000 0.589444
-0.2205108 0.8966302 0.127312 -0.4962471 0.122322 0.8595209 0.075000 0.907294
0.1102552 0.9887111 -0.06365587 0 1 -4.371139e-08 0.712500 1.000000
0 0.9887111 -0.1273119 0 1 -4.371139e-08 0.500000 1.000000
0.1102552 0.988711 0.06365594 0 1 -4.371139e-08 0.712500 1.000000
0 0.988711 0.127312 0 1 -4.371139e-08 0.500000 1.000000
-0.1102552 0.9887111 -0.06365587 0 1 -4.371139e-08 0.287500 1.000000
-0.1102552 0.988711 0.06365594 0 1 -4.371139e-08 0.287500 1.000000
0.2594244 0.5809248 -0.1497788 0.9924906 0.1223215 -5.346843e-09 1.000000 0.589444
0.2205108 0.8966302 -0.1273119 0.9924906 0.1223215 -5.346843e-09 0.925000 0.907294
0.2594244 0.5809247 0.1497787 0.9924906 0.1223215 -5.346843e-09 1.000000 0.589444
0.2205108 0.8966302 0.127312 0.9924906 0.1223215 -5.346843e-09 0.925000 0.907294
0.2594244 0.5809247 0.1497787 0.4962471 0.122322 0.8595209 1.000000 0.589444
0.2205108 0.8966302 0.127312 0.4962471 0.122322 0.8595209 0.925000 0.907294
0 0.5809247 0.2995574 0.4962471 0.122322 0.8595209 0.500000 0.589444
0 0.8966302 0.2546238 0.4962471 0.122322 0.8595209 0.500000 0.907294
-0.2594244 0.5809248 -0.1497788 -0.4962471 0.1223219 -0.8595209 0.000000 0.589444
-0.2205108 0.8966302 -0.1273119 -0.4962471 0.1223219 -0.8595209 0.075000 0.907294
0 0.5809248 -0.2995574 -0.4962471 0.1223219 -0.8595209 0.500000 0.589444
0 0.8966302 -0.2546239 -0.4962471 0.1223219 -0.8595209 0.500000 0.907294
0.2205108 0.8966302 -0.1273119 0.6410217 0.7675228 -3.354948e-08 0.925000 0.907294
0.1102552 0.9887111 -0.06365587 0.6410217 0.7675228 -3.354948e-08 0.712500 1.000000
0.2205108 0.8966302 0.127312 0.6410217 0.7675228 -3.354948e-08 0.925000 0.907294
0.1102552 0.988711 0.06365594 0.6410034 0.7675381 -3.355015e-08 0.712500 1.000000
0 0.8966302 -0.2546239 -0.3205159 0.767536 -0.5551199 0.500000 0.907294
-0.2205108 0.8966302 -0.1273119 -0.3205159 0.767536 -0.5551199 0.075000 0.907294
0 0.9887111 -0.1273119 -0.3205159 0.767536 -0.5551199 0.500000 1.000000
-0.1102552 0.9887111 -0.06365587 -0.3205104 0.7675229 -0.5551413 0.287500 1.000000
-0.1102552 0.9887111 -0.06365587 -0.6410034 0.7675381 -3.355015e-08 0.287500 1.000000
-0.2205108 0.8966302 -0.1273119 -0.6410217 0.7675228 -3.354948e-08 0.075000 0.907294
-0.1102552 0.988711 0.06365594 -0.6410217 0.7675228 -3.354948e-08 0.287500 1.000000
-0.2205108 0.8966302 0.127312 -0.6410217 0.7675228 -3.354948e-08 0.075000 0.907294
0 0.988711 0.127312 -0.3205159 0.7675361 0.5551198 0.500000 1.000000
-0.1102552 0.988711 0.06365594 -0.320489 0.7675435 0.5551251 0.287500 1.000000
0 0.8966302 0.2546238 -0.320489 0.7675435 0.5551251 0.500000 0.907294
-0.2205108 0.8966302 0.127312 -0.3204835 0.7675302 0.5551466 0.075000 0.907294
0.2205108 0.8966302 0.127312 0.320489 0.7675435 0.5551251 0.925000 0.907294
0.1102552 0.988711 0.06365594 0.320489 0.7675435 0.5551251 0.712500 1.000000
0 0.8966302 0.2546238 0.3204835 0.7675302 0.5551466 0.500000 0.907294
0 0.988711 0.127312 0.3205104 0.7675229 0.5551412 0.500000 1.000000
0.2205108 0.8966302 -0.1273119 0.3205159 0.767536 -0.5551199 0.925000 0.907294
0 0.8966302 -0.2546239 0.3205159 0.767536 -0.5551199 0.500000 0.907294
0.1102552 0.9887111 -0.06365587 0.3205159 0.767536 -0.5551199 0.712500 1.000000
0 0.9887111 -0.1273119 0.3205104 0.7675229 -0.5551413 0.500000 1.000000
0 0.4493807 0.235872 -0.4611199 -0.3866523 0.7986667 0.500000 0.457007
0 0.5809247 0.2995574 -0.4611199 -0.3866523 0.7986667 0.500000 0.589444
-0.2042712 0.4493807 0.117936 -0.4611199 -0.3866523 0.7986667 0.106299 0.457007
-0.2594244 0.5809247 0.1497787 -0.4611199 -0.3866523 0.7986667 0.000000 0.589444
-0.2042712 0.4493808 -0.117936 -0.4611199 -0.3866524 -0.7986667 0.106299 0.457007
-0.2594244 0.5809248 -0.1497788 -0.4611199 -0.3866524 -0.7986667 0.000000 0.589444
0 0.4493808 -0.235872 -0.4611199 -0.3866524 -0.7986667 0.500000 0.457007
0 0.5809248 -0.2995574 -0.4611199 -0.3866524 -0.7986667 0.500000 0.589444
0 0.4493808 -0.235872 0.4611199 -0.3866524 -0.7986667 0.500000 0.457007
0 0.5809248 -0.2995574 0.4611199 -0.3866524 -0.7986667 0.500000 0.589444
0.2042712 0.4493808 -0.117936 0.4611199 -0.3866524 -0.7986667 0.893701 0.457007
0.2594244 0.5809248 -0.1497788 0.4611199 -0.3866524 -0.7986667 1.000000 0.589444
0.2042712 0.4493807 0.117936 0.4611199 -0.3866523 0.7986667 0.893701 0.457007
0.2594244 0.5809247 0.1497787 0.4611199 -0.3866523 0.7986667 1.000000 0.589444
0 0.4493807 0.235872 0.4611199 -0.3866523 0.7986667 0.500000 0.457007
0 0.5809247 0.2995574 0.4611199 -0.3866523 0.7986667 0.500000 0.589444
0.2594244 0.5809248 -0.1497788 0.9222277 -0.3866473 1.690089e-08 1.000000 0.589444
0.2594244 0.5809247 0.1497787 0.9222277 -0.3866473 1.690089e-08 1.000000 0.589444
0.2042712 0.4493808 -0.117936 0.9222277 -0.3866473 1.690089e-08 0.893701 0.457007
0.2042712 0.4493807 0.117936 0.9222277 -0.3866473 1.690089e-08 0.893701 0.457007
-0.2594244 0.5809248 -0.1497788 -0.9222277 -0.3866473 1.690089e-08 0.000000 0.589444
-0.2042712 0.4493808 -0.117936 -0.9222277 -0.3866473 1.690089e-08 0.106299 0.457007
-0.2594244 0.5809247 0.1497787 -0.9222277 -0.3866473 1.690089e-08 0.000000 0.589444
-0.2042712 0.4493807 0.117936 -0.9222277 -0.3866473 1.690089e-08 0.106299 0.457007
-0.2594244 0.5809248 -0.1497788 -0.9924906 0.1223215 -5.346843e-09 0.000000 0.589444
-0.2594244 0.5809247 0.1497787 -0.9924906 0.1223215 -5.346843e-09 0.000000 0.589444
-0.2205108 0.8966302 -0.1273119 -0.9924906 0.1223215 -5.346843e-09 0.075000 0.907294
-0.2205108 0.8966302 0.127312 -0.9924906 0.1223215 -5.346843e-09 0.075000 0.907294
0 0.5809248 -0.2995574 0.4962471 0.1223219 -0.8595209 0.500000 0.589444
0 0.8966302 -0.2546239 0.4962471 0.1223219 -0.8595209 0.500000 0.907294
0.2594244 0.5809248 -0.1497788 0.4962471 0.1223219 -0.8595209 1.000000 0.589444
0.2205108 0.8966302 -0.1273119 0.4962471 0.1223219 -0.8595209 0.925000 0.907294
0.04861255 0.1250568 -0.02806662 0.9983298 0.0577725 -2.525316e-09 0.593693 0.130480
0.03264886 0.4007808 -0.01884991 0.9983298 0.0577725 -2.525316e-09 0.562926 0.408077
0.04861255 0.1250568 0.02806645 0.9983298 0.0577725 -2.525316e-09 0.593693 0.130480
0.03264886 0.4007808 0.01884971 0.9983298 0.0577725 -2.525316e-09 0.562926 0.408077
0.04861255 -0.004543317 -0.02806661 0 -4.371139e-08 -1 0.593693 0.000000
0.04861255 0.05215675 -0.02806661 0 -4.371139e-08 -1 0.593693 0.057085
0.1053126 -0.004543317 -0.02806661 0 -4.371139e-08 -1 0.702974 0.000000
-0.04861255 -0.004543314 0.02806646 0 4.371139e-08 1 0.406307 0.000000
-0.04861255 0.0359567 0.02806645 0 4.371139e-08 1 0.406307 0.040775
-0.1296126 -0.004543314 0.02806646 0 4.371139e-08 1 0.250192 0.000000
0.09721274 -0.004543311 0.1122441 0 -1 4.371139e-08 0.687362 0.000000
0.04859988 -0.00454331 0.1403105 0 -1 4.371139e-08 0.593669 0.000000
0.04861255 -0.004543314 0.02806646 0 -1 4.371139e-08 0.593693 0.000000
0.04861255 -0.004543317 -0.02806661 0 -1 4.371139e-08 0.593693 0.000000
0 -0.004543163 -0.05613315 0 -1 4.371139e-08 0.500000 0.000000
0.07290012 -0.004543169 -0.1823996 0 -1 4.371139e-08 0.640504 0.000000
0.1215127 -0.004543168 -0.1543331 0 -1 4.371139e-08 0.734197 0.000000
0 -0.004543313 0.05613299 0 -1 4.371139e-08 0.500000 0.000000
-0.0405 -0.00454331 0.1262809 0 -1 4.371139e-08 0.421943 0.000000
-0.04861255 -0.004543317 -0.02806661 0 -1 4.371139e-08 0.406307 0.000000
-0.06479994 -0.004543168 -0.1683701 0 -1 4.371139e-08 0.375108 0.000000
-0.04861255 -0.004543314 0.02806646 0 -1 4.371139e-08 0.406307 0.000000
-0.08911255 -0.004543311 0.09821441 0 -1 4.371139e-08 0.328249 0.000000
-0.1296126 -0.004543314 0.02806646 0 -1 4.371139e-08 0.250192 0.000000
-0.1296126 -0.004543317 -0.02806661 0 -1 4.371139e-08 0.250192 0.000000
-0.1134125 -0.004543167 -0.1403036 0 -1 4.371139e-08 0.281415 0.000000
0.1053126 -0.004543317 -0.02806661 0 -1 4.371139e-08 0.702974 0.000000
0.1053126 -0.004543314 0.02806646 0 -1 4.371139e-08 0.702974 0.000000
0 0.06835674 0.05613299 0.8660316 2.185523e-08 0.4999894 0.500000 0.073395
-0.0405 -0.00454331 0.1262809 0.8660316 2.185523e-08 0.4999894 0.421943 0.000000
0 -0.004543313 0.05613299 0.8660316 2.185523e-08 0.4999894 0.500000 0.000000
0 0.05215675 -0.05613315 0.8660316 -2.185523e-08 -0.4999894 0.500000 0.057085
0 -0.004543163 -0.05613315 0.8660316 -2.185523e-08 -0.4999894 0.500000 0.000000
-0.06479994 -0.004543168 -0.1683701 0.8660316 -2.185523e-08 -0.4999894 0.375108 0.000000
0.04861255 0.09265676 0.02806645 0.8660237 -2.185582e-08 -0.5000029 0.593693 0.097860
0.09721274 -0.004543311 0.1122441 0.8660316 -2.185523e-08 -0.4999894 0.687362 0.000000
0.04861255 0.05215675 0.02806645 0.8660316 -2.185523e-08 -0.4999894 0.593693 0.057085
0.04861255 -0.004543314 0.02806646 0.8660316 -2.185523e-08 -0.4999894 0.593693 0.000000
0 0.1250568 -0.05613315 0.4991706 0.05777308 -0.8645756 0.500000 0.130480
0 0.4007808 -0.03769987 0.4991706 0.05777308 -0.8645756 0.500000 0.408077
0.04861255 0.1250568 -0.02806662 0.4991706 0.05777308 -0.8645756 0.593693 0.130480
0.03264886 0.4007808 -0.01884991 0.4991706 0.05777308 -0.8645756 0.562926 0.408077
-0.04861255 0.1250568 -0.02806662 -0.9983298 0.0577725 -2.525316e-09 0.406307 0.130480
-0.04861255 0.1250568 0.02806645 -0.9983298 0.0577725 -2.525316e-09 0.406307 0.130480
-0.03264886 0.4007808 -0.01884991 -0.9983298 0.0577725 -2.525316e-09 0.437074 0.408077
-0.03264886 0.4007808 0.01884971 -0.9983298 0.0577725 -2.525316e-09 0.437074 0.408077
0.07290012 -0.004543169 -0.1823996 -0.8660316 -2.185523e-08 -0.4999894 0.640504 0.000000
0 -0.004543163 -0.05613315 -0.8660316 -2.185523e-08 -0.4999894 0.500000 0.000000
0 0.07645684 -0.05613315 -0.8660316 -2.185523e-08 -0.4999894 0.500000 0.081550
0 0.05215675 -0.05613315 0 1 -4.371139e-08 0.500000 0.057085
0.1053126 -0.004543314 0.02806646 0 4.371139e-08 1 0.702974 0.000000
0.04861255 0.05215675 0.02806645 0 4.371139e-08 1 0.593693 0.057085
0.04861255 -0.004543314 0.02806646 0 4.371139e-08 1 0.593693 0.000000
0.1215127 -0.004543168 -0.1543331 0.2428095 0.8741583 -0.4205839 0.734197 0.000000
0.07290012 -0.004543169 -0.1823996 0.2428095 0.8741583 -0.4205839 0.640504 0.000000
0.04861255 0.0764567 -0.02806661 0.2428095 0.8741583 -0.4205839 0.593693 0.081550
0 0.07645684 -0.05613315 0.2428095 0.8741583 -0.4205839 0.500000 0.081550
-0.04861255 0.03595669 -0.02806661 -0.4472016 0.8944332 -3.909692e-08 0.406307 0.040775
-0.1296126 -0.004543317 -0.02806661 -0.4472016 0.8944332 -3.909692e-08 0.250192 0.000000
-0.04861255 0.0359567 0.02806645 -0.4472016 0.8944332 -3.909692e-08 0.406307 0.040775
-0.1296126 -0.004543314 0.02806646 -0.4472016 0.8944332 -3.909692e-08 0.250192 0.000000
0.09721274 -0.004543311 0.1122441 0.3535394 0.7071097 0.6123771 0.687362 0.000000
0.04861255 0.09265676 0.02806645 0.3535394 0.7071097 0.6123771 0.593693 0.097860
0.04859988 -0.00454331 0.1403105 0.3535394 0.7071097 0.6123771 0.593669 0.000000
0 0.09265676 0.05613299 0.3535394 0.7071097 0.6123771 0.500000 0.097860
0 0.05215675 -0.05613315 -0.2003923 0.9161685 -0.3470998 0.500000 0.057085
-0.06479994 -0.004543168 -0.1683701 -0.2003924 0.9161685 -0.3470998 0.375108 0.000000
-0.04861255 0.05215675 -0.02806661 -0.2003924 0.9161685 -0.3470998 0.406307 0.057085
-0.1134125 -0.004543167 -0.1403036 -0.2003923 0.9161685 -0.3470998 0.281415 0.000000
0.04861255 0.05215675 -0.02806661 0.7071068 0.7071068 -3.090862e-08 0.593693 0.057085
0.04861255 0.05215675 0.02806645 0.7071068 0.7071068 -3.090862e-08 0.593693 0.057085
0.1053126 -0.004543317 -0.02806661 0.7071068 0.7071068 -3.090862e-08 0.702974 0.000000
0.1053126 -0.004543314 0.02806646 0.7071068 0.7071068 -3.090862e-08 0.702974 0.000000
-0.04861255 -0.004543314 0.02806646 -0.8660316 -2.185523e-08 -0.4999894 0.406307 0.000000
-0.08911255 -0.004543311 0.09821441 -0.8660316 -2.185523e-08 -0.4999894 0.328249 0.000000
-0.04861255 0.0359567 0.02806645 -0.8660316 -2.185523e-08 -0.4999894 0.406307 0.040775
-0.04861255 0.06835674 0.02806645 -0.8660316 -2.185523e-08 -0.4999894 0.406307 0.073395
0.04861255 0.09265676 0.02806645 0.5000029 3.785511e-08 0.8660237 0.593693 0.097860
0.04861255 0.1250568 0.02806645 0.5000029 3.785511e-08 0.8660238 0.593693 0.130480
0 0.09265676 0.05613299 0.4999894 3.785544e-08 0.8660316 0.500000 0.097860
0 0.1250568 0.05613299 0.4999894 3.785544e-08 0.8660316 0.500000 0.130480
-0.04861255 0.03595669 -0.02806661 -1 0 0 0.406307 0.040775
-0.04861255 0.0359567 0.02806645 -1 0 0 0.406307 0.040775
-0.04861255 0.05215675 -0.02806661 -1 0 0 0.406307 0.057085
-0.04861255 0.1250568 -0.02806662 -1 0 0 0.406307 0.130480
-0.04861255 0.1250568 0.02806645 -1 0 0 0.406307 0.130480
-0.04861255 0.06835674 0.02806645 0 1 -4.371139e-08 0.406307 0.073395
-0.1134125 -0.004543167 -0.1403036 -0.8660316 2.185523e-08 0.4999894 0.281415 0.000000
-0.04861255 -0.004543317 -0.02806661 -0.8660316 2.185523e-08 0.4999894 0.406307 0.000000
-0.04861255 0.05215675 -0.02806661 -0.8660316 2.185523e-08 0.4999894 0.406307 0.057085
-0.04861255 0.03595669 -0.02806661 0 1 -4.371139e-08 0.406307 0.040775
-0.04861255 0.05215675 -0.02806661 -0.4999894 -3.785544e-08 -0.8660316 0.406307 0.057085
-0.04861255 0.1250568 -0.02806662 -0.4999894 -3.785544e-08 -0.8660316 0.406307 0.130480
0 0.05215675 -0.05613315 -0.4999894 -3.785544e-08 -0.8660316 0.500000 0.057085
0 0.07645684 -0.05613315 -0.4999894 -3.785544e-08 -0.8660316 0.500000 0.081550
0 0.1250568 -0.05613315 -0.4999894 -3.785544e-08 -0.8660316 0.500000 0.130480
0 0.06835674 0.05613299 -0.3344608 0.7432978 0.5793483 0.500000 0.073395
-0.04861255 0.06835674 0.02806645 -0.3344608 0.7432978 0.5793483 0.406307 0.073395
-0.0405 -0.00454331 0.1262809 -0.3344884 0.7432901 0.5793423 0.421943 0.000000
-0.08911255 -0.004543311 0.09821441 -0.3344884 0.74329 0.5793422 0.328249 0.000000
-0.1296126 -0.004543317 -0.02806661 0 -4.371139e-08 -1 0.250192 0.000000
-0.04861255 0.03595669 -0.02806661 0 -4.371139e-08 -1 0.406307 0.040775
-0.04861255 -0.004543317 -0.02806661 0 -4.371139e-08 -1 0.406307 0.000000
0 -0.004543313 0.05613299 -0.8660316 2.185523e-08 0.4999894 0.500000 0.000000
0.04859988 -0.00454331 0.1403105 -0.8660316 2.185523e-08 0.4999894 0.593669 0.000000
0 0.06835674 0.05613299 -0.8660316 2.185523e-08 0.4999894 0.500000 0.073395
0 0.09265676 0.05613299 -0.8660316 2.185523e-08 0.4999894 0.500000 0.097860
0.1215127 -0.004543168 -0.1543331 0.8660316 2.185523e-08 0.4999894 0.734197 0.000000
0.04861255 0.0764567 -0.02806661 0.8660316 2.185523e-08 0.4999894 0.593693 0.081550
0.04861255 -0.004543317 -0.02806661 0.8660316 2.185523e-08 0.4999894 0.593693 0.000000
0.04861255 0.05215675 -0.02806661 0 1 -4.371139e-08 0.593693 0.057085
0.04861255 0.1250568 -0.02806662 1 0 0 0.593693 0.130480
0.04861255 0.1250568 0.02806645 1 0 0 0.593693 0.130480
0.04861255 0.0764567 -0.02806661 1 0 0 0.593693 0.081550
0.04861255 0.05215675 -0.02806661 1 0 0 0.593693 0.057085
0.04861255 0.05215675 0.02806645 1 0 0 0.593693 0.057085
0.04861255 0.09265676 0.02806645 0 1 -4.371139e-08 0.593693 0.097860
0 0.06835674 0.05613299 -0.4999894 3.785544e-08 0.8660316 0.500000 0.073395
0 0.09265676 0.05613299 -0.4999894 3.785544e-08 0.8660316 0.500000 0.097860
-0.04861255 0.06835674 0.02806645 -0.5000029 3.785511e-08 0.8660238 0.406307 0.073395
-0.04861255 0.1250568 0.02806645 -0.4999894 3.785544e-08 0.8660316 0.406307 0.130480
0 0.1250568 0.05613299 -0.4999894 3.785544e-08 0.8660316 0.500000 0.130480
0 0.07645684 -0.05613315 0.4999894 -3.785544e-08 -0.8660316 0.500000 0.081550
0 0.1250568 -0.05613315 0.4999894 -3.785544e-08 -0.8660316 0.500000 0.130480
0.04861255 0.0764567 -0.02806661 0.4999894 -3.785544e-08 -0.8660316 0.593693 0.081550
0.04861255 0.1250568 -0.02806662 0.4999894 -3.785544e-08 -0.8660316 0.593693 0.130480
-0.04861255 0.1250568 0.02806645 -0.4991698 0.05780305 0.8645741 0.406307 0.130480
0 0.1250568 0.05613299 -0.4991706 0.05777315 0.8645756 0.500000 0.130480
-0.0126099 0.1591204 0.04657529 -0.4991706 0.05777315 0.8645756 0.475696 0.164775
0 0.4007808 0.03769968 -0.4991706 0.05777315 0.8645756 0.500000 0.408077
-0.03365432 0.1591204 0.03442517 -0.4991698 0.05780305 0.8645741 0.435137 0.164775
-0.01190757 0.1833798 0.04535879 -0.4995127 0.05783496 0.8643739 0.477050 0.189199
-0.03295229 0.1833798 0.03320882 -0.4992652 0.05777357 0.864521 0.436490 0.189199
-0.03264886 0.4007808 0.01884971 -0.4991706 0.05777315 0.8645756 0.437074 0.408077
0.04861255 0.1250568 0.02806645 0.4991706 0.05777315 0.8645756 0.593693 0.130480
0.03264886 0.4007808 0.01884971 0.4991706 0.05777315 0.8645756 0.562926 0.408077
0 0.1250568 0.05613299 0.4991706 0.05777315 0.8645756 0.500000 0.130480
0 0.4007808 0.03769968 0.4991706 0.05777315 0.8645756 0.500000 0.408077
0 0.1250568 -0.05613315 -0.4991706 0.05777308 -0.8645756 0.500000 0.130480
-0.04861255 0.1250568 -0.02806662 -0.4991706 0.05777308 -0.8645756 0.406307 0.130480
-0.03054309 0.2440033 -0.03054689 -0.4991698 0.05780297 -0.8645741 0.441133 0.250235
-0.03264886 0.4007808 -0.01884991 -0.4991706 0.05777308 -0.8645756 0.437074 0.408077
-0.02984076 0.2682625 -0.02933055 -0.4990164 0.05777294 -0.8646646 0.442487 0.274659
-0.008796342 0.2682625 -0.04148052 -0.4992056 0.05780366 -0.8645534 0.483046 0.274659
-0.009498677 0.2440033 -0.04269701 -0.4991706 0.05777308 -0.8645756 0.481693 0.250235
0 0.4007808 -0.03769987 -0.4991706 0.05777308 -0.8645756 0.500000 0.408077
-0.03699636 0.1664346 0.07885058 -0.4991698 0.05780305 0.8645741 0.428695 0.172139
-0.036582 0.1807476 0.07813279 -0.4991465 0.05780394 0.8645875 0.429494 0.186549
-0.04941252 0.1664346 0.07168201 -0.4991465 0.05780394 0.8645875 0.404765 0.172139
-0.04899817 0.1807476 0.07096437 -0.4991473 0.05777404 0.864589 0.405564 0.186549
-0.04630098 0.2513174 -0.06780373 -0.4991473 0.05777397 -0.864589 0.410762 0.257598
-0.04588694 0.2656303 -0.06708609 -0.4991473 0.05777397 -0.864589 0.411560 0.272008
-0.03388483 0.2513174 -0.07497215 -0.4991473 0.05777397 -0.864589 0.434692 0.257598
-0.03347047 0.2656303 -0.07425452 -0.4991465 0.05780386 -0.8645875 0.435491 0.272008
-0.03388483 0.2513174 -0.07497215 0.7986158 0.007050044 -0.6018 0.434692 0.257598
-0.03347047 0.2656303 -0.07425452 0.7986158 0.007050044 -0.6018 0.435491 0.272008
-0.009498677 0.2440033 -0.04269701 0.798605 0.007050212 -0.6018143 0.481693 0.250235
-0.008796342 0.2682625 -0.04148052 0.798605 0.007050212 -0.6018143 0.483046 0.274659
-0.009498677 0.2440033 -0.04269701 -0.08960319 -0.983808 -0.155219 0.481693 0.250235
-0.03054309 0.2440033 -0.03054689 -0.08960319 -0.983808 -0.155219 0.441133 0.250235
-0.03388483 0.2513174 -0.07497215 -0.08960319 -0.983808 -0.155219 0.434692 0.257598
-0.04630098 0.2513174 -0.06780373 -0.08960319 -0.983808 -0.155219 0.410762 0.257598
-0.04630098 0.2513174 -0.06780373 -0.9204885 0.007019167 0.3907063 0.410762 0.257598
-0.03054309 0.2440033 -0.03054689 -0.9204884 0.007050166 0.3907062 0.441133 0.250235
-0.04588694 0.2656303 -0.06708609 -0.9204886 0.007019168 0.3907064 0.411560 0.272008
-0.02984076 0.2682625 -0.02933055 -0.9204884 0.007050166 0.3907062 0.442487 0.274659
-0.008796342 0.2682625 -0.04148052 -0.03222881 0.9979188 -0.05585045 0.483046 0.274659
-0.03347047 0.2656303 -0.07425452 -0.03222881 0.9979188 -0.05585045 0.435491 0.272008
-0.02984076 0.2682625 -0.02933055 -0.03222881 0.9979188 -0.05585045 0.442487 0.274659
-0.04588694 0.2656303 -0.06708609 -0.03222881 0.9979188 -0.05585045 0.411560 0.272008
-0.0126099 0.1591204 0.04657529 -0.08960319 -0.983808 0.1552191 0.475696 0.164775
-0.03699636 0.1664346 0.07885058 -0.08960319 -0.983808 0.1552191 0.428695 0.172139
-0.03365432 0.1591204 0.03442517 -0.08960319 -0.983808 0.1552191 0.435137 0.164775
-0.04941252 0.1664346 0.07168201 -0.08960319 -0.983808 0.1552191 0.404765 0.172139
-0.03295229 0.1833798 0.03320882 -0.9204885 0.007019132 -0.3907063 0.436490 0.189199
-0.03365432 0.1591204 0.03442517 -0.9204886 0.007019133 -0.3907064 0.435137 0.164775
-0.04899817 0.1807476 0.07096437 -0.9204884 0.007050131 -0.3907062 0.405564 0.186549
-0.04941252 0.1664346 0.07168201 -0.9204884 0.007050131 -0.3907062 0.404765 0.172139
-0.01190757 0.1833798 0.04535879 -0.03222881 0.9979188 0.05585036 0.477050 0.189199
-0.03295229 0.1833798 0.03320882 -0.03222881 0.9979188 0.05585036 0.436490 0.189199
-0.036582 0.1807476 0.07813279 -0.03222881 0.9979188 0.05585036 0.429494 0.186549
-0.04899817 0.1807476 0.07096437 -0.03222881 0.9979188 0.05585036 0.405564 0.186549
-0.01190757 0.1833798 0.04535879 0.798605 0.007050264 0.6018143 0.477050 0.189199
-0.036582 0.1807476 0.07813279 0.7986158 0.007050096 0.6018 0.429494 0.186549
-0.0126099 0.1591204 0.04657529 0.798605 0.007050264 0.6018143 0.475696 0.164775
-0.03699636 0.1664346 0.07885058 0.7986158 0.007050096 0.6018 0.428695 0.172139
3 0 1 2 
3 3 2 1 
3 4 3 1 
3 5 4 1 
3 6 5 1 
3 7 5 6 
3 3 8 2 
3 9 2 8 
3 10 9 8 
3 7 9 10 
3 11 9 7 
3 6 11 7 
3 12 13 14 
3 15 14 13 
3 16 17 18 
3 19 18 17 
3 20 21 22 
3 23 22 21 
3 24 25 26 
3 27 26 25 
3 28 29 30 
3 31 30 29 
3 32 33 34 
3 35 34 33 
3 36 37 38 
3 39 38 37 
3 40 41 42 
3 43 42 41 
3 44 43 41 
3 45 43 44 
3 46 47 48 
3 49 48 47 
3 50 51 52 
3 53 52 51 
3 54 55 56 
3 57 56 55 
3 58 59 60 
3 61 60 59 
3 62 63 64 
3 65 64 63 
3 66 67 68 
3 69 68 67 
3 70 71 72 
3 73 72 71 
3 74 75 76 
3 77 76 75 
3 78 79 80 
3 81 80 79 
3 82 83 84 
3 85 84 83 
3 86 87 88 
3 89 88 87 
3 90 91 92 
3 93 92 91 
3 94 95 96 
3 97 96 95 
3 98 99 100 
3 101 100 99 
3 102 103 104 
3 105 104 103 
3 106 107 108 
3 109 108 107 
3 110 111 112 
3 113 112 111 
3 114 115 116 
3 117 116 115 
3 118 119 120 
3 121 122 123 
3 124 125 126 
3 127 126 125 
3 125 128 127 
3 128 129 127 
3 130 127 129 
3 131 128 125 
3 132 128 131 
3 133 128 132 
3 134 128 133 
3 135 133 132 
3 132 136 135 
3 135 137 133 
3 138 133 137 
3 139 134 133 
3 127 140 126 
3 141 126 140 
3 142 143 144 
3 145 146 147 
3 148 149 150 
3 151 150 149 
3 152 153 154 
3 155 154 153 
3 156 157 158 
3 159 158 157 
3 160 161 162 
3 163 162 161 
3 164 165 166 
3 167 168 169 
3 170 169 168 
3 171 172 173 
3 174 173 172 
3 175 176 177 
3 178 177 176 
3 179 180 181 
3 182 181 180 
3 183 184 185 
3 186 185 184 
3 187 188 189 
3 190 189 188 
3 191 192 193 
3 194 193 192 
3 195 196 197 
3 198 197 196 
3 199 198 196 
3 200 199 196 
3 201 202 203 
3 204 203 202 
3 205 206 207 
3 208 207 206 
3 209 208 206 
3 210 211 212 
3 213 212 211 
3 214 215 216 
3 217 218 219 
3 220 219 218 
3 221 222 223 
3 224 223 222 
3 225 226 227 
3 228 227 226 
3 229 228 226 
3 230 229 226 
3 231 232 233 
3 234 233 232 
3 235 234 232 
3 236 237 238 
3 239 238 237 
3 240 241 242 
3 243 242 241 
3 244 240 242 
3 245 242 243 
3 246 245 243 
3 240 244 247 
3 246 247 244 
3 243 247 246 
3 248 249 250 
3 251 250 249 
3 252 253 254 
3 255 254 253 
3 256 254 255 
3 257 256 255 
3 254 258 252 
3 259 252 258 
3 257 259 258 
3 255 259 257 
3 260 261 262 
3 263 262 261 
3 264 265 266 
3 267 266 265 
3 268 269 270 
3 271 270 269 
3 272 273 274 
3 275 274 273 
3 276 277 278 
3 279 278 277 
3 280 281 282 
3 283 282 281 
3 284 285 286 
3 287 286 285 
3 288 289 290 
3 291 290 289 
3 292 293 294 
3 295 294 293 
3 296 297 298 
3 299 298 297 
